<?xml version="1.0" encoding="utf-8"?>
<!-- Generator: Adobe Illustrator 16.0.4, SVG Export Plug-In . SVG Version: 6.00 Build 0)  -->
<!DOCTYPE svg PUBLIC "-//W3C//DTD SVG 1.1//EN" "http://www.w3.org/Graphics/SVG/1.1/DTD/svg11.dtd">
<svg version="1.1" id="Layer_1" xmlns="http://www.w3.org/2000/svg" xmlns:xlink="http://www.w3.org/1999/xlink" x="0px" y="0px"
	 width="534.123px" height="165.333px" viewBox="0 0 534.123 165.333" enable-background="new 0 0 534.123 165.333"
	 xml:space="preserve">
<g>
	<path fill="#FFFFFF" d="M132.83,142.75l-4.432,0.119c-1.725,0.061-2.439,0.209-2.885,0.862c-0.297,0.447-0.446,0.803-0.505,1.041
		s-0.148,0.356-0.327,0.356c-0.208,0-0.268-0.148-0.268-0.476c0-0.475,0.565-3.183,0.625-3.42c0.089-0.386,0.179-0.565,0.357-0.565
		c0.238,0,0.536,0.299,1.279,0.356c0.863,0.09,1.993,0.15,2.974,0.15h11.778c1.904,0,2.618-0.299,2.855-0.299
		c0.208,0,0.238,0.18,0.238,0.625c0,0.624-0.09,2.678-0.09,3.451c-0.029,0.296-0.089,0.476-0.268,0.476
		c-0.238,0-0.297-0.149-0.327-0.595l-0.03-0.328c-0.06-0.773-0.862-1.606-3.509-1.666l-3.748-0.089v12.195
		c0,2.736,0,5.086,0.148,6.364c0.089,0.833,0.268,1.487,1.16,1.606c0.417,0.06,1.071,0.119,1.517,0.119
		c0.328,0,0.476,0.088,0.476,0.239c0,0.207-0.238,0.296-0.565,0.296c-1.963,0-3.837-0.089-4.67-0.089
		c-0.684,0-2.558,0.089-3.748,0.089c-0.386,0-0.595-0.089-0.595-0.296c0-0.151,0.119-0.239,0.476-0.239
		c0.446,0,0.803-0.06,1.071-0.119c0.595-0.119,0.773-0.773,0.863-1.636c0.148-1.249,0.148-3.599,0.148-6.335V142.75z"/>
	<path fill="#FFFFFF" d="M163.256,149.711c0-4.521,0-5.354-0.06-6.307c-0.059-1.012-0.297-1.486-1.278-1.695
		c-0.238-0.06-0.744-0.089-1.16-0.089c-0.327,0-0.506-0.059-0.506-0.269c0-0.208,0.209-0.268,0.655-0.268
		c1.576,0,3.45,0.091,4.075,0.091c1.011,0,3.272-0.091,4.193-0.091c1.874,0,3.867,0.179,5.473,1.279
		c0.833,0.566,2.022,2.083,2.022,4.075c0,2.2-0.922,4.224-3.926,6.663c2.646,3.331,4.699,5.978,6.454,7.822
		c1.666,1.725,2.885,1.933,3.331,2.022c0.327,0.059,0.595,0.089,0.833,0.089c0.238,0,0.357,0.088,0.357,0.239
		c0,0.236-0.208,0.296-0.565,0.296h-2.826c-1.666,0-2.409-0.148-3.182-0.565c-1.279-0.684-2.41-2.081-4.075-4.372
		c-1.19-1.637-2.558-3.659-2.945-4.104c-0.149-0.178-0.328-0.208-0.535-0.208l-2.587-0.061c-0.149,0-0.238,0.061-0.238,0.238v0.417
		c0,2.767,0,5.116,0.148,6.365c0.09,0.862,0.268,1.517,1.161,1.636c0.446,0.06,1.1,0.119,1.457,0.119
		c0.238,0,0.357,0.088,0.357,0.239c0,0.207-0.208,0.296-0.595,0.296c-1.725,0-3.926-0.089-4.372-0.089
		c-0.565,0-2.439,0.089-3.628,0.089c-0.387,0-0.595-0.089-0.595-0.296c0-0.151,0.119-0.239,0.476-0.239
		c0.446,0,0.803-0.06,1.071-0.119c0.595-0.119,0.744-0.773,0.862-1.636c0.148-1.249,0.148-3.599,0.148-6.335V149.711z
		 M166.767,152.061c0,0.326,0.06,0.444,0.268,0.535c0.625,0.208,1.517,0.296,2.26,0.296c1.189,0,1.577-0.117,2.112-0.505
		c0.893-0.653,1.755-2.021,1.755-4.461c0-4.225-2.796-5.443-4.551-5.443c-0.744,0-1.279,0.029-1.576,0.12
		c-0.208,0.059-0.268,0.177-0.268,0.415V152.061z"/>
	<path fill="#FFFFFF" d="M197.554,149.711c0-4.521,0-5.354-0.059-6.307c-0.06-1.012-0.297-1.486-1.279-1.695
		c-0.238-0.06-0.744-0.089-1.16-0.089c-0.328,0-0.506-0.059-0.506-0.269c0-0.208,0.208-0.268,0.655-0.268
		c1.576,0,3.45,0.091,4.343,0.091c0.713,0,2.587-0.091,3.658-0.091c0.446,0,0.654,0.06,0.654,0.268c0,0.21-0.179,0.269-0.476,0.269
		c-0.327,0-0.505,0.029-0.863,0.089c-0.803,0.148-1.041,0.654-1.1,1.695c-0.06,0.953-0.06,1.785-0.06,6.307v4.162
		c0,4.314,0.863,6.127,2.32,7.318c1.338,1.101,2.707,1.219,3.719,1.219c1.308,0,2.914-0.416,4.104-1.605
		c1.636-1.636,1.725-4.312,1.725-7.376v-3.718c0-4.521,0-5.354-0.059-6.307c-0.059-1.012-0.297-1.486-1.278-1.695
		c-0.238-0.06-0.744-0.089-1.071-0.089c-0.328,0-0.506-0.059-0.506-0.269c0-0.208,0.209-0.268,0.624-0.268
		c1.518,0,3.391,0.091,3.421,0.091c0.356,0,2.23-0.091,3.391-0.091c0.416,0,0.624,0.06,0.624,0.268c0,0.21-0.179,0.269-0.535,0.269
		c-0.327,0-0.506,0.029-0.862,0.089c-0.804,0.148-1.042,0.654-1.101,1.695c-0.059,0.953-0.059,1.785-0.059,6.307v3.181
		c0,3.303-0.328,6.812-2.826,8.954c-2.112,1.813-4.254,2.143-6.187,2.143c-1.576,0-4.432-0.091-6.603-2.054
		c-1.517-1.368-2.647-3.57-2.647-7.882V149.711z"/>
	<path fill="#FFFFFF" d="M238.067,141.204c0.089-0.506,0.269-0.772,0.506-0.772c0.238,0,0.416,0.149,0.803,0.921l8.12,16.777
		l8.091-16.985c0.208-0.476,0.386-0.713,0.653-0.713c0.269,0,0.446,0.297,0.536,0.921l2.706,18.381
		c0.269,1.875,0.565,2.737,1.458,3.004c0.862,0.269,1.457,0.299,1.844,0.299c0.268,0,0.476,0.029,0.476,0.207
		c0,0.239-0.356,0.328-0.772,0.328c-0.744,0-4.849-0.089-6.038-0.179c-0.684-0.06-0.862-0.149-0.862-0.327
		c0-0.148,0.118-0.237,0.327-0.328c0.178-0.059,0.268-0.444,0.148-1.277l-1.785-13.088h-0.118l-6.484,13.504
		c-0.685,1.399-0.833,1.666-1.101,1.666s-0.565-0.595-1.041-1.487c-0.714-1.368-3.063-5.92-3.421-6.752
		c-0.268-0.624-2.052-4.372-3.093-6.603h-0.12l-1.546,11.838c-0.059,0.535-0.089,0.922-0.089,1.397c0,0.566,0.386,0.833,0.892,0.953
		c0.536,0.117,0.952,0.147,1.25,0.147c0.237,0,0.446,0.06,0.446,0.207c0,0.269-0.268,0.328-0.715,0.328
		c-1.249,0-2.587-0.089-3.123-0.089c-0.564,0-1.992,0.089-2.943,0.089c-0.299,0-0.536-0.06-0.536-0.328
		c0-0.147,0.179-0.207,0.476-0.207c0.238,0,0.446,0,0.893-0.089c0.833-0.179,1.07-1.339,1.22-2.35L238.067,141.204z"/>
	<path fill="#FFFFFF" d="M281.254,149.711c0-4.521,0-5.354-0.059-6.307c-0.06-1.012-0.298-1.486-1.279-1.695
		c-0.238-0.06-0.744-0.089-1.159-0.089c-0.328,0-0.506-0.059-0.506-0.269c0-0.208,0.208-0.268,0.653-0.268
		c1.577,0,3.451,0.091,4.046,0.091c1.457,0,2.617-0.091,3.629-0.091c5.384,0,6.335,2.887,6.335,4.463
		c0,2.438-1.398,3.895-3.034,5.205c2.439,0.831,5.414,2.944,5.414,6.424c0,3.183-2.469,6.483-7.942,6.483
		c-0.714,0-3.42-0.178-4.312-0.178c-0.684,0-2.558,0.089-3.748,0.089c-0.387,0-0.594-0.089-0.594-0.296
		c0-0.151,0.117-0.239,0.475-0.239c0.447,0,0.804-0.06,1.071-0.119c0.596-0.119,0.744-0.773,0.863-1.636
		c0.147-1.249,0.147-3.599,0.147-6.335V149.711z M284.824,150.215c0,0.239,0.088,0.298,0.207,0.328
		c0.268,0.059,0.715,0.089,1.399,0.089c0.98,0,1.636-0.119,2.142-0.564c0.772-0.626,1.219-1.696,1.219-3.152
		c0-1.993-1.161-4.61-3.718-4.61c-0.417,0-0.685,0-0.981,0.059c-0.208,0.061-0.268,0.18-0.268,0.506V150.215z M288.75,152.596
		c-0.625-0.446-1.309-0.654-2.47-0.715c-0.534-0.03-0.831-0.03-1.278-0.03c-0.118,0-0.178,0.061-0.178,0.21v7.049
		c0,1.963,0.088,2.469,1.041,2.854c0.802,0.328,1.486,0.357,2.17,0.357c1.339,0,3.6-0.714,3.6-3.806
		C291.635,156.67,291.01,154.172,288.75,152.596z"/>
	<path fill="#FFFFFF" d="M314.27,149.711c0-4.521,0-5.354-0.061-6.307c-0.059-1.012-0.297-1.486-1.278-1.695
		c-0.238-0.06-0.744-0.089-1.16-0.089c-0.327,0-0.505-0.059-0.505-0.269c0-0.208,0.207-0.268,0.654-0.268
		c1.576,0,3.45,0.091,4.342,0.091c0.714,0,2.587-0.091,3.658-0.091c0.447,0,0.654,0.06,0.654,0.268c0,0.21-0.178,0.269-0.475,0.269
		c-0.328,0-0.507,0.029-0.863,0.089c-0.803,0.148-1.042,0.654-1.1,1.695c-0.061,0.953-0.061,1.785-0.061,6.307v4.162
		c0,4.314,0.862,6.127,2.32,7.318c1.339,1.101,2.707,1.219,3.718,1.219c1.309,0,2.914-0.416,4.104-1.605
		c1.636-1.636,1.725-4.312,1.725-7.376v-3.718c0-4.521,0-5.354-0.059-6.307c-0.061-1.012-0.297-1.486-1.279-1.695
		c-0.238-0.06-0.743-0.089-1.071-0.089c-0.327,0-0.506-0.059-0.506-0.269c0-0.208,0.209-0.268,0.625-0.268
		c1.517,0,3.391,0.091,3.421,0.091c0.356,0,2.23-0.091,3.391-0.091c0.416,0,0.624,0.06,0.624,0.268c0,0.21-0.179,0.269-0.535,0.269
		c-0.327,0-0.506,0.029-0.862,0.089c-0.803,0.148-1.041,0.654-1.1,1.695c-0.061,0.953-0.061,1.785-0.061,6.307v3.181
		c0,3.303-0.326,6.812-2.825,8.954c-2.111,1.813-4.254,2.143-6.187,2.143c-1.577,0-4.433-0.091-6.604-2.054
		c-1.517-1.368-2.646-3.57-2.646-7.882V149.711z"/>
	<path fill="#FFFFFF" d="M357.872,154.946c0,3.806,0,5.859,0.625,6.395c0.505,0.446,1.279,0.654,3.599,0.654
		c1.576,0,2.736-0.03,3.48-0.833c0.356-0.387,0.714-1.22,0.772-1.785c0.03-0.267,0.09-0.445,0.328-0.445
		c0.208,0,0.237,0.148,0.237,0.506c0,0.327-0.208,2.558-0.446,3.42c-0.178,0.654-0.327,0.803-1.874,0.803
		c-4.283,0-6.246-0.178-8.655-0.178c-0.685,0-2.558,0.089-3.747,0.089c-0.386,0-0.595-0.089-0.595-0.296
		c0-0.151,0.119-0.239,0.476-0.239c0.445,0,0.803-0.06,1.07-0.119c0.596-0.119,0.743-0.773,0.862-1.636
		c0.15-1.249,0.15-3.599,0.15-6.335v-5.234c0-4.521,0-5.354-0.061-6.307c-0.059-1.012-0.297-1.486-1.278-1.695
		c-0.238-0.06-0.596-0.089-0.982-0.089c-0.327,0-0.505-0.059-0.505-0.269c0-0.208,0.208-0.268,0.654-0.268
		c1.397,0,3.271,0.091,4.075,0.091c0.714,0,2.884-0.091,4.044-0.091c0.417,0,0.625,0.06,0.625,0.268c0,0.21-0.178,0.269-0.535,0.269
		c-0.327,0-0.803,0.029-1.16,0.089c-0.803,0.148-1.041,0.654-1.101,1.695c-0.06,0.953-0.06,1.785-0.06,6.307V154.946z"/>
	<path fill="#FFFFFF" d="M389.132,154.946c0,3.806,0,5.859,0.625,6.395c0.506,0.446,1.278,0.654,3.599,0.654
		c1.577,0,2.736-0.03,3.48-0.833c0.357-0.387,0.713-1.22,0.773-1.785c0.029-0.267,0.09-0.445,0.327-0.445
		c0.207,0,0.238,0.148,0.238,0.506c0,0.327-0.209,2.558-0.446,3.42c-0.18,0.654-0.328,0.803-1.874,0.803
		c-4.283,0-6.246-0.178-8.655-0.178c-0.685,0-2.559,0.089-3.748,0.089c-0.387,0-0.594-0.089-0.594-0.296
		c0-0.151,0.118-0.239,0.476-0.239c0.445,0,0.803-0.06,1.07-0.119c0.595-0.119,0.743-0.773,0.862-1.636
		c0.148-1.249,0.148-3.599,0.148-6.335v-5.234c0-4.521,0-5.354-0.059-6.307c-0.061-1.012-0.299-1.486-1.28-1.695
		c-0.236-0.06-0.594-0.089-0.98-0.089c-0.327,0-0.506-0.059-0.506-0.269c0-0.208,0.208-0.268,0.654-0.268
		c1.397,0,3.271,0.091,4.074,0.091c0.714,0,2.886-0.091,4.045-0.091c0.417,0,0.626,0.06,0.626,0.268c0,0.21-0.18,0.269-0.536,0.269
		c-0.327,0-0.804,0.029-1.16,0.089c-0.803,0.148-1.04,0.654-1.101,1.695c-0.06,0.953-0.06,1.785-0.06,6.307V154.946z"/>
</g>
<path fill="#EDB111" d="M90.436,110.779c0-3.711,0-4.376-0.054-5.139c-0.046-0.808-0.232-1.195-1.016-1.357l-0.816-0.07
	l-0.187-0.147c0-0.141,0.118-0.186,0.381-0.186c1.07,0,2.523,0.07,2.733,0.07c0.215,0,1.644-0.07,2.357-0.07
	c0.264,0,0.381,0.045,0.381,0.186l-0.187,0.147c-0.169,0-0.31,0.022-0.596,0.07c-0.645,0.092-0.832,0.527-0.886,1.357
	c-0.046,0.763-0.046,1.428-0.046,5.139v3.338c0,3.422,0.76,4.897,1.784,5.876c1.172,1.093,2.244,1.31,3.593,1.31
	c1.451,0,2.879-0.69,3.741-1.713c1.096-1.359,1.382-3.385,1.382-5.829v-2.981c0-3.711,0-4.376-0.046-5.139
	c-0.056-0.808-0.24-1.195-1.026-1.357l-0.814-0.07l-0.187-0.147c0-0.141,0.118-0.186,0.381-0.186c1.07,0,2.383,0.07,2.521,0.07
	c0.172,0,1.291-0.07,2.004-0.07c0.256,0,0.379,0.045,0.379,0.186l-0.194,0.147c-0.162,0-0.31,0-0.589,0.07
	c-0.645,0.116-0.839,0.527-0.885,1.357c-0.046,0.763-0.046,1.428-0.046,5.139v2.547c0,2.576-0.287,5.432-2.188,7.116
	c-1.715,1.529-3.501,1.763-4.906,1.763c-0.806,0-3.212-0.095-4.903-1.692c-1.165-1.118-2.065-2.779-2.065-6.255V110.779z"/>
<path fill="#EDB111" d="M133.42,118.633c0.045,1.955,0.286,2.57,0.921,2.763c0.458,0.118,0.98,0.141,1.195,0.141l0.187,0.148
	c0,0.139-0.139,0.185-0.427,0.185c-1.357,0-2.304-0.07-2.521-0.07c-0.217,0-1.21,0.07-2.282,0.07l-0.379-0.185l0.185-0.148
	c0.195,0,0.622-0.022,0.978-0.141c0.599-0.162,0.716-0.854,0.716-3.025l0.023-13.637c0-0.925,0.069-1.188,0.264-1.188l0.83,0.759
	c0.357,0.404,3.905,4.239,7.567,8.166c2.359,2.522,4.952,5.425,5.712,6.208l-0.256-12.091c-0.03-1.546-0.194-2.065-0.931-2.26
	c-0.427-0.094-0.978-0.116-1.165-0.116l-0.194-0.17c0-0.14,0.194-0.163,0.474-0.163c1.072,0,2.221,0.07,2.477,0.07
	c0.264,0,1.047-0.07,2.025-0.07c0.264,0,0.427,0.023,0.427,0.163l-0.256,0.17c-0.125,0-0.287,0-0.575,0.07
	c-0.784,0.162-0.883,0.69-0.883,2.12l-0.048,13.945c0,1.569-0.046,1.691-0.208,1.691c-0.194,0-0.481-0.263-1.74-1.527
	c-0.264-0.232-3.693-3.734-6.216-6.442c-2.755-2.98-5.449-5.976-6.209-6.838L133.42,118.633z"/>
<path fill="#EDB111" d="M178.521,114.97c0,2.281,0,4.168,0.124,5.161c0.071,0.691,0.209,1.219,0.924,1.312
	c0.334,0.046,0.862,0.093,1.072,0.093l0.194,0.148c0,0.114-0.125,0.185-0.381,0.185c-1.311,0-2.81-0.07-2.933-0.07
	c-0.117,0-1.614,0.07-2.329,0.07c-0.264,0-0.381-0.046-0.381-0.185l0.187-0.148l0.714-0.093c0.481-0.094,0.598-0.621,0.69-1.312
	c0.123-0.993,0.123-2.88,0.123-5.161v-4.191c0-3.711,0-4.376-0.054-5.139c-0.046-0.808-0.279-1.219-0.806-1.335
	c-0.264-0.07-0.568-0.093-0.738-0.093l-0.186-0.147c0-0.141,0.118-0.186,0.381-0.186c0.783,0,2.28,0.07,2.397,0.07
	c0.123,0,1.623-0.07,2.335-0.07c0.266,0,0.381,0.045,0.381,0.186l-0.194,0.147c-0.163,0-0.302,0.022-0.589,0.07
	c-0.645,0.116-0.839,0.527-0.886,1.357c-0.046,0.763-0.046,1.428-0.046,5.139V114.97z"/>
<path fill="#EDB111" d="M213.369,118.968c1.382-3.19,4.572-11.496,5.09-13.212c0.117-0.355,0.22-0.69,0.22-0.9l-0.312-0.551
	c-0.285-0.093-0.642-0.093-0.907-0.093l-0.257-0.147c0-0.141,0.142-0.186,0.522-0.186c0.954,0,2.048,0.07,2.334,0.07
	c0.142,0,1.164-0.07,1.855-0.07c0.256,0,0.404,0.045,0.404,0.163l-0.287,0.17c-0.163,0-0.69,0-1.141,0.287
	c-0.312,0.21-0.668,0.613-1.312,2.235c-0.264,0.668-1.452,3.523-2.662,6.45c-1.452,3.478-2.521,6.046-3.073,7.211
	c-0.669,1.428-0.761,1.809-1.001,1.809c-0.286,0-0.404-0.335-0.854-1.476l-5.828-14.591c-0.528-1.328-0.886-1.591-1.715-1.833
	c-0.358-0.093-0.762-0.093-0.908-0.093l-0.187-0.17c0-0.14,0.233-0.163,0.613-0.163c1.147,0,2.499,0.07,2.785,0.07
	c0.241,0,1.313-0.07,2.213-0.07c0.434,0,0.643,0.045,0.643,0.163l-0.233,0.17c-0.264,0-0.689,0.022-0.906,0.116
	c-0.264,0.116-0.312,0.311-0.312,0.481c0,0.303,0.287,1.04,0.646,1.971L213.369,118.968z"/>
<path fill="#EDB111" d="M247.07,110.779c0-3.711,0-4.376-0.049-5.139c-0.046-0.808-0.238-1.195-1.023-1.357l-0.807-0.07
	l-0.194-0.147c0-0.141,0.122-0.186,0.381-0.186c1.07,0,2.575,0.07,2.691,0.07c0.165,0,4.907,0,5.45-0.025
	c0.45-0.021,0.837-0.067,1.023-0.115l0.336-0.126l0.092,0.22c0,0.162-0.117,0.448-0.187,1.117c-0.023,0.241-0.069,1.287-0.125,1.568
	l-0.162,0.263l-0.194-0.311c0-0.162-0.022-0.564-0.141-0.853c-0.162-0.381-0.402-0.668-1.691-0.81
	c-0.402-0.046-2.995-0.068-3.259-0.068l-0.141,0.232v6.574l0.141,0.233c0.31,0,3.235,0,3.788-0.047
	c0.565-0.046,0.898-0.093,1.116-0.333l0.357-0.311l0.116,0.194c0,0.139-0.116,0.543-0.185,1.334
	c-0.049,0.474-0.103,1.352-0.103,1.521l-0.163,0.449l-0.17-0.216c0-0.233,0-0.474-0.095-0.784c-0.092-0.333-0.31-0.738-1.233-0.83
	c-0.644-0.072-3.004-0.118-3.406-0.118l-0.164,0.164v2.096c0,0.808-0.022,3.57,0,4.067c0.069,1.645,0.428,1.956,2.757,1.956
	c0.619,0,1.668,0,2.288-0.265c0.621-0.263,0.901-0.736,1.072-1.715c0.046-0.257,0.093-0.357,0.208-0.357l0.148,0.357
	c0,0.194-0.195,1.809-0.311,2.312c-0.164,0.615-0.355,0.615-1.288,0.615c-3.596,0-5.186-0.142-5.877-0.142
	c-0.046,0-0.448,0.024-0.953,0.024c-0.474,0.023-1.025,0.046-1.382,0.046c-0.257,0-0.38-0.046-0.38-0.185l0.193-0.148l0.714-0.093
	c0.474-0.094,0.599-0.621,0.691-1.312c0.117-0.993,0.117-2.88,0.117-5.161V110.779z"/>
<path fill="#EDB111" d="M320.43,121.56c-0.335-0.164-0.357-0.258-0.357-0.901c0-1.188,0.095-2.142,0.117-2.522
	c0.023-0.263,0.069-0.381,0.186-0.381l0.171,0.258c0,0.217,0,0.552,0.069,0.885c0.357,1.761,1.926,2.428,3.523,2.428
	c2.282,0,3.399-1.644,3.399-3.166c0-1.645-0.682-2.592-2.731-4.283l-1.071-0.886c-2.521-2.063-3.096-3.547-3.096-5.161
	c0-2.546,1.901-4.283,4.927-4.283c0.933,0,1.624,0.092,2.213,0.24c0.45,0.093,0.645,0.116,0.831,0.116l0.24,0.162
	c0,0.125-0.092,0.908-0.092,2.523c0,0.387-0.049,0.55-0.172,0.55l-0.187-0.31c-0.022-0.288-0.171-0.924-0.311-1.188
	c-0.141-0.264-0.782-1.266-2.974-1.266c-1.646,0-2.934,1.026-2.934,2.764c0,1.359,0.669,2.167,2.911,3.999l0.668,0.527
	c2.803,2.212,3.471,3.685,3.471,5.587c0,0.979-0.382,2.786-2.027,3.952c-1.017,0.714-2.306,1.001-3.594,1.001
	C322.493,122.205,321.401,122.04,320.43,121.56z"/>
<path fill="#EDB111" d="M358.724,114.97c0,2.281,0,4.168,0.117,5.161c0.069,0.691,0.218,1.219,0.931,1.312
	c0.333,0.046,0.854,0.093,1.07,0.093l0.188,0.148c0,0.114-0.115,0.185-0.38,0.185c-1.312,0-2.81-0.07-2.928-0.07
	c-0.114,0-1.621,0.07-2.336,0.07c-0.255,0-0.379-0.046-0.379-0.185l0.194-0.148l0.714-0.093c0.475-0.094,0.598-0.621,0.689-1.312
	c0.117-0.993,0.117-2.88,0.117-5.161v-4.191c0-3.711,0-4.376-0.045-5.139c-0.048-0.808-0.287-1.219-0.809-1.335
	c-0.265-0.07-0.574-0.093-0.737-0.093l-0.193-0.147c0-0.141,0.123-0.186,0.38-0.186c0.783,0,2.29,0.07,2.404,0.07
	c0.118,0,1.616-0.07,2.337-0.07c0.256,0,0.381,0.045,0.381,0.186l-0.193,0.147c-0.164,0-0.312,0.022-0.6,0.07
	c-0.634,0.116-0.828,0.527-0.874,1.357c-0.049,0.763-0.049,1.428-0.049,5.139V114.97z"/>
<path fill="#EDB111" d="M393.472,114.97c0,2.281,0,4.168,0.118,5.161c0.076,0.691,0.217,1.219,0.93,1.312
	c0.334,0.046,0.854,0.093,1.071,0.093l0.193,0.148c0,0.114-0.123,0.185-0.388,0.185c-1.303,0-2.801-0.07-2.926-0.07
	c-0.117,0-1.614,0.07-2.329,0.07c-0.264,0-0.379-0.046-0.379-0.185l0.186-0.148l0.715-0.093c0.481-0.094,0.597-0.621,0.69-1.312
	c0.116-0.993,0.116-2.88,0.116-5.161v-10.067l-3.516,0.046c-1.482,0.024-2.048,0.188-2.429,0.762
	c-0.265,0.404-0.335,0.574-0.405,0.738l-0.24,0.241l-0.116-0.219l0.521-2.477l0.241-0.448c0.161,0,0.403,0.24,1.047,0.286
	c0.691,0.07,1.592,0.117,1.878,0.117h8.927c0.761,0,1.311-0.07,1.691-0.117c0.356-0.07,0.565-0.125,0.668-0.125l0.116,0.287
	c0,0.715-0.069,2.36-0.069,2.625l-0.173,0.302c-0.117,0-0.162-0.07-0.186-0.403l-0.022-0.257c-0.1-0.714-0.645-1.265-2.934-1.312
	l-2.997-0.046V114.97z"/>
<path fill="#EDB111" d="M428.702,115.708c0-1.289-0.242-1.809-0.551-2.5c-0.164-0.379-3.354-5.618-4.184-6.853
	c-0.599-0.884-1.196-1.477-1.624-1.762c-0.356-0.242-0.807-0.381-1.025-0.381l-0.239-0.17l0.311-0.163
	c0.449,0,2.244,0.07,2.358,0.07c0.164,0,1.073-0.07,1.997-0.07c0.263,0,0.31,0.07,0.31,0.163l-0.359,0.217l-0.308,0.427
	c0,0.287,0.125,0.575,0.308,0.932c0.383,0.689,3.952,6.83,4.388,7.521c0.45-1.002,3.471-6.218,3.951-7.001
	c0.302-0.498,0.401-0.901,0.401-1.212c0-0.333-0.1-0.598-0.379-0.667l-0.357-0.24l0.382-0.14c0.619,0,1.38,0.07,1.565,0.07
	c0.148,0,1.855-0.07,2.314-0.07l0.309,0.14l-0.309,0.193c-0.265,0-0.713,0.093-1.093,0.335c-0.481,0.285-0.74,0.565-1.268,1.209
	c-0.783,0.956-4.112,6.552-4.548,7.569c-0.356,0.861-0.356,1.597-0.356,2.382v2.048c0,0.381,0,1.383,0.078,2.376
	c0.046,0.691,0.256,1.219,0.969,1.312c0.333,0.046,0.862,0.093,1.07,0.093l0.194,0.148c0,0.114-0.115,0.185-0.379,0.185
	c-1.312,0-2.811-0.07-2.928-0.07c-0.122,0-1.622,0.07-2.334,0.07c-0.267,0-0.381-0.046-0.381-0.185l0.187-0.148l0.722-0.093
	c0.474-0.094,0.684-0.621,0.737-1.312c0.07-0.993,0.07-1.995,0.07-2.376V115.708z"/>
<path fill="#EDB111" d="M274.7,26.623c0,0,0.737-0.714,2.576-0.885c2.109-0.195,3.26-1.094,4.043-2.081
	c0.784-0.978,0.754-2.025,1.622-2.864c0.886-0.853,1.653-1.389,2.717-1.506c1.078-0.116,1.902,0.039,2.755-0.458
	c0.855-0.497,0.886-0.504,0.886-0.504s-0.622,0.21-1.413,0.271c-0.782,0.069-1.993-0.255-2.717-0.255
	c-0.721,0-2.259,0.325-3.145,1.141c-0.884,0.821-1.737,2.134-2.623,2.49c-0.884,0.358-2.109,0.707-2.745,0.513
	c-1.135-0.349-1.576-0.605-2.562-0.482c-0.979,0.133-1.256,0.303-1.256,0.303l10.167-13.054l-13.607,9.756
	c0,0,0.016-0.606,0.411-1.458c0.391-0.847,1.788-1.74,1.994-3.159c0.18-1.212,0.282-1.964-0.394-3.354
	c-0.583-1.233-0.52-2.265-0.373-3.034c0.162-0.869,0.705-1.77,1.194-2.243c0.839-0.806,1.033-1.28,1.195-1.886l0.148-0.589
	c0,0-0.03,0.248-0.653,1.031c-0.668,0.838-1.055,0.622-1.871,1.382c-0.82,0.752-1.404,1.684-1.667,2.778
	c-0.311,1.281,0.273,1.777,0.103,3.081c-0.172,1.227-0.288,1.476-0.956,2.391c-0.575,0.784-0.995,0.955-1.861,1.413
	c-0.691,0.357-1.273,0.846-1.646,1.731l-2.555-15.965l-2.421,16.096c0,0-0.884-1.373-0.916-1.831
	c-0.046-0.59-0.085-2.522-1.18-3.656c-0.917-0.947-1.429-1.21-2.949-1.784c-0.893-0.335-1.917-1.39-2.359-2.321
	c-0.442-0.939-0.358-2.654-0.488-3.05c-0.131-0.396-0.723-1.326-0.723-1.326s0.325,0.806,0.294,1.59
	c-0.03,0.784-0.426,2.158-0.324,2.717c0.1,0.558,0.164,1.707,1.373,2.816c1.212,1.118,1.708,0.987,2.461,2.461
	c0.752,1.474,0.621,2.227,0.355,3.043c-0.264,0.821-0.558,1.605-0.294,2.296c0.264,0.683,0.256,0.831,0.256,0.831l-13.598-9.756
	l10.068,13.046c0,0-1.298-0.116-1.996-0.737c-0.971-0.846-1.623-1.273-2.754-1.583c0,0-1.064-0.381-2.601,0.077
	c-1.546,0.458-1.251,0.574-2.298,0.737c-1.05,0.163-2.731-0.093-3.556-0.783c-0.814-0.691-1.489-1.296-2.08-1.49
	c-0.589-0.195-1.062-0.249-1.062-0.249s0.947,0.333,1.669,1.147c0.736,0.839,0.916,1.615,1.963,2.197
	c1.103,0.604,2.034,0.846,3.02,0.784c0.978-0.069,1.008-0.302,2.319-0.147c0.708,0.078,2.08,0.621,2.432,1.033
	c0.921,1.102,1.489,2.173,1.932,2.584c0.559,0.528,1.241,0.753,1.241,0.753l-16.74,2.786c0,0,15.809-1.047,17.873-1.149
	c2.065-0.093,7.716-0.536,11.154-0.488c3.438,0.055,5.503,0.202,7.807,0.341c2.313,0.147,21.475,1.367,21.475,1.367L274.7,26.623z"
	/>
<path fill-rule="evenodd" clip-rule="evenodd" fill="#EDB111" d="M284.705,105.066l0.185-0.286c0.239-0.07,0.878-0.141,1.592-0.141
	c2.554,0,4.119,1.786,4.119,4.758c0,1.811-0.619,3.097-1.45,3.672c-0.551,0.379-1.211,0.449-1.783,0.449
	c-1.05,0-2.143-0.169-2.501-0.379l-0.161-0.287V105.066z M282.795,114.97c0,2.281,0,4.168-0.117,5.161
	c-0.1,0.691-0.218,1.219-0.69,1.312l-0.715,0.093l-0.192,0.148c0,0.139,0.124,0.185,0.38,0.185c0.713,0,2.219-0.07,2.242-0.07
	c0.117,0,1.614,0.07,2.928,0.07c0.263,0,0.379-0.07,0.379-0.185l-0.192-0.148c-0.21,0-0.74-0.047-1.072-0.093
	c-0.714-0.094-0.854-0.621-0.924-1.312c-0.115-0.993-0.115-2.88-0.115-5.161v-0.575l0.161-0.186l2.927,0.048l0.31,0.138
	c0.475,0.621,1.6,2.221,2.593,3.524c1.359,1.786,2.189,2.949,3.213,3.501c0.622,0.333,1.219,0.449,2.547,0.449h1.691
	c0.427,0,0.575-0.046,0.575-0.185l-0.219-0.148c-0.14,0-0.472,0-0.923-0.07c-0.598-0.094-1.622-0.356-2.91-1.713
	c-1.374-1.477-2.995-3.597-4.943-6.095c2.142-1.972,2.879-3.733,2.879-5.495c0-1.646-1.049-2.811-1.646-3.237
	c-1.258-0.907-2.857-1.047-4.354-1.047c-0.738,0-2.547,0.07-2.81,0.07c-0.118,0-1.624-0.07-2.693-0.07
	c-0.257,0-0.381,0.045-0.381,0.186l0.194,0.147l0.808,0.07c0.781,0.162,0.976,0.55,1.021,1.357c0.049,0.763,0.049,1.428,0.049,5.139
	V114.97z"/>
<path fill-rule="evenodd" clip-rule="evenodd" fill="#FFFFFF" d="M472.297,93c2.06,0,3.724-1.676,3.724-3.744
	c0-2.051-1.664-3.728-3.724-3.728c-2.068,0-3.746,1.677-3.746,3.728C468.551,91.325,470.229,93,472.297,93z M472.297,92.507
	c-1.822,0-3.152-1.42-3.152-3.251c0-1.815,1.33-3.233,3.152-3.233c1.812,0,3.133,1.418,3.133,3.233
	C475.43,91.087,474.109,92.507,472.297,92.507z M472.897,89.422c0.738-0.02,1.31-0.324,1.31-1.144c0-0.689-0.374-1.104-1.478-1.104
	h-1.822v4.169h0.512v-1.922h0.936l1.192,1.922h0.613L472.897,89.422z M471.419,89.019v-1.479h1.194c0.51,0,1.043,0.08,1.043,0.729
	c0,0.847-0.868,0.749-1.457,0.749H471.419z"/>
<g>
	<path fill="#FFFFFF" d="M64.436,57.567c0-11.626,0-13.715-0.148-16.098c-0.146-2.53-0.745-3.725-3.205-4.246
		c-0.598-0.146-1.863-0.226-2.531-0.226c-0.303,0-0.597-0.146-0.597-0.441c0-0.45,0.372-0.597,1.195-0.597
		c3.353,0,7.745,0.225,8.195,0.225c0.668,0,4.991-0.225,7.226-0.225c0.816,0,1.189,0.147,1.189,0.597
		c0,0.295-0.296,0.441-0.59,0.441c-0.528,0-0.97,0.08-1.864,0.226c-2.017,0.373-2.608,1.638-2.762,4.246
		c-0.147,2.383-0.147,4.471-0.147,16.098v4.47h0.302c1.267-1.421,14.747-15.127,17.432-18.029c2.088-2.166,4.021-4.099,4.021-5.372
		c0-0.892-0.372-1.334-0.962-1.559c-0.372-0.148-0.676-0.304-0.676-0.599c0-0.373,0.374-0.52,0.894-0.52
		c1.489,0,3.803,0.225,5.589,0.225c0.372,0,5.293-0.225,7.156-0.225c0.822,0,1.116,0.147,1.116,0.52
		c0,0.373-0.146,0.519-0.745,0.519c-1.116,0-2.685,0.374-4.175,1.05c-3.051,1.333-4.688,3.197-8.041,6.402
		c-1.863,1.793-14.831,14.459-16.392,16.322c1.933,2.157,17.432,18.178,20.49,21.01c6.255,5.815,7.304,7.312,11.1,8.492
		c2.01,0.628,4.098,0.969,4.617,0.969c0.52,0,0.971,0.149,0.971,0.451c0,0.373-0.372,0.591-1.639,0.591h-3.803
		c-2.086,0-3.5,0-5.137-0.147c-3.952-0.374-5.814-2.012-9.02-4.54c-3.353-2.765-19.147-19.824-22.727-24.217h-0.371v7.297
		c0,7.156,0,13.039,0.371,16.174c0.228,2.158,0.675,3.795,2.913,4.099c1.039,0.146,2.234,0.293,2.902,0.293
		c0.451,0,0.599,0.227,0.599,0.451c0,0.373-0.374,0.591-1.197,0.591c-3.647,0-7.97-0.218-8.568-0.218
		c-0.597,0-4.912,0.218-7.148,0.218c-0.822,0-1.195-0.147-1.195-0.591c0-0.225,0.148-0.451,0.598-0.451
		c0.668,0,1.559-0.146,2.235-0.293c1.492-0.304,1.863-1.94,2.158-4.099c0.373-3.136,0.373-9.018,0.373-16.174V57.567z"/>
	<path fill="#FFFFFF" d="M156.05,82.155c0.148,6.108,0.894,8.049,2.905,8.639c1.413,0.373,3.058,0.449,3.724,0.449
		c0.374,0,0.599,0.149,0.599,0.451c0,0.443-0.45,0.591-1.344,0.591c-4.244,0-7.226-0.218-7.901-0.218
		c-0.667,0-3.795,0.218-7.148,0.218c-0.745,0-1.195-0.07-1.195-0.591c0-0.302,0.225-0.451,0.599-0.451
		c0.597,0,1.94-0.076,3.056-0.449c1.863-0.52,2.237-2.679,2.237-9.461l0.069-42.696c0-2.902,0.225-3.725,0.824-3.725
		c0.597,0,1.861,1.645,2.605,2.39c1.119,1.266,12.218,13.256,23.697,25.551c7.374,7.9,15.492,16.989,17.882,19.45l-0.822-37.853
		c-0.079-4.843-0.599-6.48-2.904-7.078c-1.341-0.294-3.058-0.374-3.655-0.374c-0.52,0-0.596-0.225-0.596-0.519
		c0-0.451,0.596-0.52,1.489-0.52c3.353,0,6.931,0.225,7.752,0.225c0.816,0,3.276-0.225,6.335-0.225c0.814,0,1.342,0.069,1.342,0.52
		c0,0.294-0.303,0.519-0.823,0.519c-0.372,0-0.893,0-1.784,0.226c-2.462,0.521-2.765,2.158-2.765,6.629l-0.148,43.667
		c0,4.919-0.146,5.293-0.666,5.293c-0.599,0-1.492-0.823-5.441-4.774c-0.824-0.745-11.55-11.696-19.45-20.187
		c-8.639-9.313-17.061-18.706-19.444-21.391L156.05,82.155z"/>
	<path fill="#FFFFFF" d="M231.896,70.677c0,7.156,0,13.039,0.371,16.174c0.228,2.158,0.676,3.795,2.913,4.099
		c1.039,0.146,2.677,0.293,3.353,0.293c0.442,0,0.597,0.227,0.597,0.451c0,0.373-0.371,0.591-1.195,0.591
		c-4.098,0-8.794-0.218-9.165-0.218c-0.374,0-5.07,0.218-7.305,0.218c-0.813,0-1.188-0.147-1.188-0.591
		c0-0.225,0.148-0.451,0.599-0.451c0.668,0,1.559-0.146,2.234-0.293c1.49-0.304,1.864-1.94,2.158-4.099
		c0.372-3.136,0.372-9.018,0.372-16.174V39.165l-11.029,0.147c-4.617,0.069-6.409,0.598-7.599,2.383
		c-0.821,1.265-1.047,1.785-1.264,2.313c-0.225,0.588-0.45,0.745-0.745,0.745c-0.225,0-0.373-0.225-0.373-0.675
		c0-0.745,1.492-7.148,1.637-7.746c0.149-0.451,0.443-1.42,0.745-1.42c0.522,0,1.267,0.746,3.276,0.899
		c2.165,0.217,4.999,0.374,5.892,0.374h27.94c4.766,0,6.777-0.745,7.374-0.745c0.372,0,0.372,0.441,0.372,0.893
		c0,2.235-0.224,7.373-0.224,8.196c0,0.667-0.218,0.97-0.521,0.97c-0.373,0-0.52-0.225-0.6-1.272l-0.067-0.816
		c-0.304-2.234-2.013-3.95-9.168-4.097l-9.391-0.147V70.677z"/>
	<path fill="#FFFFFF" d="M328.462,70.677c0,7.156,0,13.039,0.373,16.174c0.218,2.158,0.668,3.795,2.903,4.099
		c1.039,0.146,2.685,0.293,3.353,0.293c0.451,0,0.6,0.227,0.6,0.451c0,0.373-0.375,0.591-1.196,0.591
		c-4.1,0-8.794-0.218-9.168-0.218c-0.371,0-5.061,0.218-7.297,0.218c-0.82,0-1.191-0.147-1.191-0.591
		c0-0.225,0.145-0.451,0.596-0.451c0.668,0,1.562-0.146,2.235-0.293c1.49-0.304,1.861-1.94,2.156-4.099
		c0.373-3.136,0.373-9.018,0.373-16.174V39.165l-9.981,0.147c-4.616,0.069-6.411,0.598-7.597,2.383
		c-0.822,1.265-1.048,1.785-1.273,2.313c-0.218,0.588-0.441,0.745-0.745,0.745c-0.217,0-0.373-0.225-0.373-0.675
		c0-0.745,1.489-7.148,1.646-7.746c0.147-0.451,0.442-1.42,0.746-1.42c0.52,0,1.266,0.746,3.273,0.899
		c2.159,0.217,4.992,0.374,5.885,0.374h26.9c2.385,0,4.098-0.225,5.294-0.374c1.116-0.225,1.783-0.372,2.079-0.372
		c0.372,0,0.372,0.441,0.372,0.893c0,2.235-0.217,7.373-0.217,8.196c0,0.667-0.225,0.97-0.52,0.97c-0.379,0-0.528-0.225-0.599-1.272
		l-0.077-0.816c-0.294-2.234-2.01-3.95-9.164-4.097l-9.386-0.147V70.677z"/>
	<path fill="#FFFFFF" d="M407.366,70.677c0,7.156,0,13.039,0.372,16.174c0.225,2.158,0.668,3.795,2.901,4.099
		c1.048,0.146,2.687,0.293,3.352,0.293c0.452,0,0.6,0.227,0.6,0.451c0,0.373-0.372,0.591-1.195,0.591
		c-4.097,0-8.786-0.218-9.158-0.218s-5.068,0.218-7.303,0.218c-0.824,0-1.196-0.147-1.196-0.591c0-0.225,0.147-0.451,0.597-0.451
		c0.668,0,1.569-0.146,2.236-0.293c1.49-0.304,1.862-1.94,2.159-4.099c0.371-3.136,0.371-9.018,0.371-16.174V39.165l-11.021,0.147
		c-4.625,0.069-6.41,0.598-7.606,2.383c-0.813,1.265-1.04,1.785-1.265,2.313c-0.224,0.588-0.442,0.745-0.744,0.745
		c-0.226,0-0.372-0.225-0.372-0.675c0-0.745,1.488-7.148,1.637-7.746c0.155-0.451,0.451-1.42,0.744-1.42
		c0.528,0,1.272,0.746,3.284,0.899c2.156,0.217,4.991,0.374,5.885,0.374h27.939c2.382,0,4.098-0.225,5.293-0.374
		c1.117-0.225,1.786-0.372,2.088-0.372c0.374,0,0.374,0.441,0.374,0.893c0,2.235-0.229,7.373-0.229,8.196
		c0,0.667-0.224,0.97-0.518,0.97c-0.372,0-0.528-0.225-0.599-1.272l-0.076-0.816c-0.297-2.234-2.012-3.95-9.168-4.097l-9.382-0.147
		V70.677z"/>
	<path fill="#FFFFFF" d="M113.984,57.567c0-11.626,0-13.715-0.156-16.098c-0.146-2.53-0.745-3.725-3.196-4.246
		c-0.599-0.146-1.863-0.226-2.539-0.226c-0.294,0-0.596-0.146-0.596-0.441c0-0.45,0.371-0.597,1.195-0.597
		c3.353,0,8.049,0.225,8.421,0.225c0.519,0,21.142,0,22.849-0.078c1.421-0.078,2.616-0.226,3.205-0.373
		c0.374-0.077,0.676-0.373,1.049-0.373c0.217,0,0.294,0.296,0.294,0.667c0,0.528-0.374,1.421-0.597,3.509
		c-0.071,0.737-0.218,4.021-0.374,4.913c-0.069,0.373-0.225,0.823-0.52,0.823c-0.443,0-0.599-0.372-0.599-0.97
		c0-0.52-0.07-1.793-0.44-2.685c-0.53-1.188-7.064-2.081-11.085-2.531c-1.264-0.147-9.39-0.225-10.206-0.225
		c-0.302,0-0.451,0.225-0.451,0.745v20.568c0,0.521,0.077,0.746,0.451,0.746c0.963,0,15.919,0,17.634-0.148
		c1.794-0.155,2.833-0.302,3.501-1.047c0.526-0.599,0.821-0.97,1.118-0.97c0.223,0,0.371,0.154,0.371,0.597
		c0,0.45-0.371,1.715-0.589,4.177c-0.148,1.489-0.304,4.244-0.304,4.765c0,0.596,0,1.419-0.52,1.419c-0.372,0-0.52-0.303-0.52-0.675
		c0-0.744,0-1.491-0.302-2.459c-0.296-1.042-6.762-2.306-9.664-2.608c-2.009-0.218-9.39-0.373-10.657-0.373
		c-0.372,0-0.52,0.225-0.52,0.527v6.552c0,2.536-0.076,11.175,0,12.744c0.226,5.139,1.344,6.108,8.646,6.108
		c1.934,0,11.007,0,12.94-0.816c1.939-0.821,2.833-2.311,3.353-5.37c0.156-0.814,0.302-1.117,0.675-1.117
		c0.443,0,0.443,0.598,0.443,1.117c0,0.598-0.591,5.667-0.962,7.233c-0.522,1.933-1.118,1.933-4.028,1.933
		c-11.246,0-22.036-0.441-24.193-0.441c-0.148,0-1.421,0.07-2.98,0.07c-1.492,0.077-3.207,0.147-4.325,0.147
		c-0.821,0-1.195-0.147-1.195-0.591c0-0.225,0.156-0.451,0.599-0.451c0.675,0,1.566-0.146,2.234-0.293
		c1.492-0.304,1.863-1.94,2.165-4.099c0.374-3.136,0.374-9.018,0.374-16.174V57.567z"/>
	<path fill="#FFFFFF" d="M434.685,57.97c0-11.618,0-13.706-0.146-16.088c-0.147-2.539-0.745-3.726-3.206-4.246
		c-0.598-0.155-1.863-0.225-2.529-0.225c-0.305,0-0.599-0.147-0.599-0.451c0-0.443,0.374-0.597,1.196-0.597
		c3.352,0,8.041,0.225,8.414,0.225c0.52,0,21.141,0,22.856-0.07c1.412-0.077,2.605-0.225,3.205-0.371
		c0.372-0.078,0.668-0.381,1.04-0.381c0.225,0,0.302,0.304,0.302,0.676c0,0.52-0.371,1.413-0.598,3.5
		c-0.076,0.745-0.224,4.02-0.372,4.92c-0.076,0.373-0.223,0.816-0.521,0.816c-0.451,0-0.596-0.374-0.596-0.962
		c0-0.529-0.08-1.794-0.452-2.687c-0.519-1.195-7.054-2.087-11.082-2.53c-1.267-0.156-9.384-0.225-10.208-0.225
		c-0.293,0-0.441,0.225-0.441,0.745v20.559c0,0.528,0.069,0.746,0.441,0.746c0.971,0,15.927,0,17.643-0.147
		c1.785-0.148,2.833-0.296,3.5-1.041c0.52-0.597,0.824-0.97,1.119-0.97c0.225,0,0.374,0.148,0.374,0.598
		c0,0.442-0.374,1.715-0.6,4.167c-0.149,1.49-0.294,4.252-0.294,4.774c0,0.598,0,1.411-0.52,1.411c-0.374,0-0.529-0.293-0.529-0.667
		c0-0.744,0-1.49-0.295-2.46c-0.295-1.039-6.76-2.312-9.662-2.608c-2.02-0.226-9.393-0.372-10.657-0.372
		c-0.372,0-0.521,0.226-0.521,0.52v6.559c0,2.53-0.078,11.176,0,12.744c0.219,5.139,1.334,6.107,8.639,6.107
		c1.94,0,11.006,0,12.945-0.822c1.94-0.813,2.833-2.304,3.353-5.362c0.148-0.823,0.295-1.118,0.668-1.118
		c0.452,0,0.452,0.598,0.452,1.118c0,0.597-0.597,5.664-0.972,7.226c-0.52,1.939-1.117,1.939-4.021,1.939
		c-11.253,0-22.035-0.451-24.198-0.451c-0.148,0-1.413,0.079-2.981,0.079c-1.49,0.07-3.196,0.148-4.315,0.148
		c-0.824,0-1.195-0.148-1.195-0.599c0-0.224,0.146-0.441,0.598-0.441c0.666,0,1.561-0.156,2.237-0.304
		c1.487-0.295,1.861-1.934,2.156-4.1c0.371-3.126,0.371-9.01,0.371-16.165V57.97z"/>
	<path fill="#FFFFFF" d="M271.548,91.454c-1.242-0.519-1.325-0.823-1.325-2.834c0-3.724,0.348-6.705,0.441-7.893
		c0.086-0.822,0.264-1.195,0.705-1.195c0.536,0,0.621,0.226,0.621,0.822c0,0.668,0,1.715,0.263,2.756
		c1.329,5.509,7.172,7.597,13.112,7.597c8.497,0,12.656-5.138,12.656-9.91c0-5.138-2.91-9.842-10.523-15.137l-3.988-2.754
		c-9.386-6.48-11.512-11.098-11.512-16.167c0-7.979,7.087-13.411,18.332-13.411c3.455,0,5.069,0.255,7.281,0.706
		c1.684,0.294,2.305,0.279,3.013,0.279c0.712,0,0.891,0.148,0.891,0.52c0,0.374,1.141,3.593,1.839,8.546
		c0.171,1.18-0.171,1.715-0.612,1.715c-0.536,0-0.621-0.372-0.714-0.97c-0.087-0.893-1.784-3.422-2.312-4.245
		c-0.539-0.815-2.92-3.943-11.069-3.943c-6.107,0-10.889,3.197-10.889,8.638c0,4.254,2.475,6.784,10.796,12.521l2.482,1.637
		c10.447,6.93,13.273,13.271,13.273,19.232c0,3.059-1.42,8.725-7.53,12.373c-3.803,2.235-8.583,3.127-13.365,3.127
		C279.249,93.462,275.181,92.943,271.548,91.454z"/>
	<path fill-rule="evenodd" clip-rule="evenodd" fill="#FFFFFF" d="M354.324,67.625c-0.256,0-0.435-0.148-0.256-0.52l7.56-20.119
		c0.433-1.117,0.861-1.117,1.295,0l8.165,20.119c0.087,0.295,0.087,0.52-0.342,0.52H354.324z M342.277,84.086
		c-1.544,3.729-3.259,6.56-7.218,7.01c-0.69,0.07-1.894,0.146-2.498,0.146c-0.428,0-0.771,0.149-0.771,0.451
		c0,0.443,0.513,0.591,1.63,0.591c4.046,0,8.772-0.218,9.719-0.218c0.947,0,4.65,0.218,6.705,0.218c0.775,0,1.298-0.147,1.298-0.591
		c0-0.302-0.267-0.451-0.862-0.451h-0.862c-1.458,0-3.268-0.667-3.268-2.156c0-1.344,0.427-3.136,1.203-5l5.161-13.185
		c0.171-0.373,0.435-0.599,0.862-0.599h18.486c0.428,0,0.599,0.147,0.777,0.45l7.994,18.333c0.521,1.188,0,1.863-0.512,2.01
		c-0.35,0.07-0.605,0.226-0.605,0.52c0,0.451,0.947,0.451,2.585,0.521c5.928,0.147,12.209,0.147,13.495,0.147
		c0.948,0,1.724-0.147,1.724-0.591c0-0.372-0.341-0.451-0.861-0.451c-0.862,0-2.148-0.076-3.439-0.449
		c-1.807-0.443-4.299-1.64-7.396-8.266c-5.246-11.324-18.751-42.098-20.041-44.931c-1.029-2.313-1.373-2.685-1.892-2.685
		c-0.513,0-0.861,0.45-1.888,2.911L342.277,84.086z"/>
</g>
</svg>
