<?xml version="1.0" encoding="utf-8"?>
<!-- Generator: Adobe Illustrator 16.0.4, SVG Export Plug-In . SVG Version: 6.00 Build 0)  -->
<!DOCTYPE svg PUBLIC "-//W3C//DTD SVG 1.1//EN" "http://www.w3.org/Graphics/SVG/1.1/DTD/svg11.dtd">
<svg version="1.1" id="Layer_1" xmlns="http://www.w3.org/2000/svg" xmlns:xlink="http://www.w3.org/1999/xlink" x="0px" y="0px"
	 width="534.123px" height="165.333px" viewBox="0 0 534.123 165.333" enable-background="new 0 0 534.123 165.333"
	 xml:space="preserve">
<g>
	<path fill="#001F5B" d="M132.652,141.283l-4.4,0.118c-1.712,0.059-2.421,0.206-2.864,0.855c-0.295,0.443-0.443,0.797-0.502,1.034
		c-0.059,0.236-0.147,0.354-0.325,0.354c-0.207,0-0.266-0.147-0.266-0.473c0-0.472,0.561-3.159,0.62-3.395
		c0.088-0.384,0.177-0.562,0.354-0.562c0.236,0,0.531,0.296,1.27,0.354c0.856,0.09,1.978,0.148,2.953,0.148h11.693
		c1.89,0,2.599-0.296,2.834-0.296c0.207,0,0.236,0.178,0.236,0.621c0,0.619-0.088,2.657-0.088,3.426
		c-0.03,0.294-0.088,0.472-0.266,0.472c-0.236,0-0.295-0.147-0.325-0.591l-0.03-0.324c-0.059-0.769-0.856-1.596-3.484-1.654
		l-3.72-0.088v12.106c0,2.716,0,5.049,0.147,6.317c0.088,0.827,0.266,1.477,1.151,1.595c0.414,0.06,1.063,0.119,1.506,0.119
		c0.325,0,0.473,0.088,0.473,0.236c0,0.207-0.236,0.295-0.561,0.295c-1.949,0-3.809-0.088-4.636-0.088
		c-0.679,0-2.54,0.088-3.721,0.088c-0.384,0-0.59-0.088-0.59-0.295c0-0.148,0.118-0.236,0.472-0.236c0.443,0,0.797-0.06,1.063-0.119
		c0.59-0.118,0.768-0.768,0.856-1.623c0.148-1.24,0.148-3.573,0.148-6.289V141.283z"/>
	<path fill="#001F5B" d="M162.858,148.192c0-4.489,0-5.314-0.059-6.26c-0.059-1.005-0.295-1.477-1.27-1.684
		c-0.236-0.059-0.738-0.088-1.151-0.088c-0.325,0-0.502-0.059-0.502-0.267c0-0.207,0.207-0.266,0.649-0.266
		c1.565,0,3.425,0.089,4.045,0.089c1.004,0,3.248-0.089,4.163-0.089c1.86,0,3.838,0.178,5.433,1.27
		c0.827,0.562,2.008,2.067,2.008,4.045c0,2.186-0.916,4.193-3.897,6.615c2.628,3.308,4.665,5.935,6.407,7.767
		c1.654,1.711,2.864,1.918,3.307,2.008c0.325,0.058,0.591,0.088,0.827,0.088c0.236,0,0.354,0.088,0.354,0.236
		c0,0.235-0.207,0.295-0.561,0.295h-2.806c-1.653,0-2.392-0.147-3.159-0.562c-1.27-0.679-2.392-2.065-4.045-4.341
		c-1.181-1.624-2.54-3.632-2.923-4.075c-0.147-0.176-0.325-0.206-0.531-0.206l-2.569-0.06c-0.148,0-0.236,0.06-0.236,0.237v0.412
		c0,2.747,0,5.08,0.147,6.32c0.089,0.855,0.266,1.505,1.152,1.623c0.443,0.06,1.092,0.119,1.447,0.119
		c0.236,0,0.354,0.088,0.354,0.236c0,0.207-0.207,0.295-0.59,0.295c-1.712,0-3.897-0.088-4.341-0.088
		c-0.561,0-2.421,0.088-3.602,0.088c-0.384,0-0.591-0.088-0.591-0.295c0-0.148,0.119-0.236,0.473-0.236
		c0.443,0,0.797-0.06,1.063-0.119c0.591-0.118,0.738-0.768,0.856-1.623c0.147-1.24,0.147-3.573,0.147-6.289V148.192z
		 M166.342,150.525c0,0.325,0.059,0.441,0.266,0.531c0.62,0.206,1.506,0.294,2.244,0.294c1.181,0,1.565-0.116,2.097-0.5
		c0.886-0.65,1.742-2.008,1.742-4.431c0-4.193-2.776-5.402-4.518-5.402c-0.738,0-1.27,0.028-1.565,0.118
		c-0.207,0.059-0.266,0.176-0.266,0.413V150.525z"/>
	<path fill="#001F5B" d="M196.906,148.192c0-4.489,0-5.314-0.059-6.26c-0.059-1.005-0.295-1.477-1.27-1.684
		c-0.236-0.059-0.738-0.088-1.151-0.088c-0.325,0-0.502-0.059-0.502-0.267c0-0.207,0.207-0.266,0.649-0.266
		c1.565,0,3.426,0.089,4.312,0.089c0.708,0,2.568-0.089,3.632-0.089c0.443,0,0.649,0.059,0.649,0.266
		c0,0.208-0.177,0.267-0.472,0.267c-0.325,0-0.502,0.029-0.856,0.088c-0.797,0.147-1.034,0.649-1.092,1.684
		c-0.059,0.945-0.059,1.771-0.059,6.26v4.133c0,4.283,0.856,6.083,2.303,7.266c1.329,1.092,2.687,1.209,3.691,1.209
		c1.3,0,2.894-0.413,4.075-1.594c1.624-1.624,1.712-4.281,1.712-7.322v-3.691c0-4.489,0-5.314-0.059-6.26
		c-0.059-1.005-0.295-1.477-1.27-1.684c-0.236-0.059-0.738-0.088-1.063-0.088s-0.502-0.059-0.502-0.267
		c0-0.207,0.207-0.266,0.62-0.266c1.506,0,3.366,0.089,3.396,0.089c0.354,0,2.215-0.089,3.366-0.089c0.414,0,0.62,0.059,0.62,0.266
		c0,0.208-0.177,0.267-0.531,0.267c-0.324,0-0.502,0.029-0.856,0.088c-0.797,0.147-1.033,0.649-1.093,1.684
		c-0.059,0.945-0.059,1.771-0.059,6.26v3.158c0,3.278-0.325,6.763-2.805,8.89c-2.096,1.8-4.223,2.126-6.142,2.126
		c-1.565,0-4.399-0.09-6.555-2.038c-1.506-1.358-2.628-3.544-2.628-7.825V148.192z"/>
	<path fill="#001F5B" d="M237.126,139.747c0.089-0.502,0.267-0.768,0.502-0.768c0.236,0,0.414,0.148,0.797,0.915l8.062,16.654
		l8.032-16.861c0.206-0.472,0.383-0.708,0.649-0.708c0.266,0,0.442,0.296,0.531,0.915l2.687,18.248
		c0.266,1.86,0.562,2.717,1.447,2.982c0.856,0.266,1.446,0.296,1.831,0.296c0.265,0,0.472,0.028,0.472,0.206
		c0,0.237-0.354,0.325-0.768,0.325c-0.738,0-4.812-0.088-5.994-0.178c-0.679-0.06-0.855-0.147-0.855-0.325
		c0-0.147,0.117-0.235,0.324-0.324c0.178-0.06,0.266-0.442,0.147-1.27l-1.771-12.992h-0.118l-6.438,13.405
		c-0.679,1.389-0.826,1.654-1.092,1.654s-0.562-0.59-1.033-1.477c-0.709-1.358-3.042-5.876-3.396-6.703
		c-0.266-0.619-2.037-4.341-3.07-6.555h-0.118l-1.536,11.752c-0.059,0.531-0.088,0.915-0.088,1.388c0,0.562,0.384,0.827,0.886,0.945
		c0.531,0.117,0.945,0.147,1.24,0.147c0.236,0,0.443,0.059,0.443,0.206c0,0.266-0.267,0.325-0.709,0.325
		c-1.24,0-2.569-0.088-3.101-0.088c-0.561,0-1.979,0.088-2.923,0.088c-0.296,0-0.532-0.06-0.532-0.325
		c0-0.147,0.178-0.206,0.473-0.206c0.236,0,0.443,0,0.886-0.088c0.827-0.178,1.063-1.33,1.211-2.333L237.126,139.747z"/>
	<path fill="#001F5B" d="M280,148.192c0-4.489,0-5.314-0.06-6.26c-0.059-1.005-0.295-1.477-1.27-1.684
		c-0.235-0.059-0.738-0.088-1.15-0.088c-0.325,0-0.503-0.059-0.503-0.267c0-0.207,0.207-0.266,0.649-0.266
		c1.565,0,3.426,0.089,4.016,0.089c1.447,0,2.599-0.089,3.604-0.089c5.344,0,6.289,2.865,6.289,4.43
		c0,2.421-1.388,3.867-3.012,5.168c2.421,0.825,5.374,2.923,5.374,6.377c0,3.159-2.451,6.437-7.885,6.437
		c-0.708,0-3.396-0.176-4.281-0.176c-0.679,0-2.539,0.088-3.721,0.088c-0.384,0-0.59-0.088-0.59-0.295
		c0-0.148,0.117-0.236,0.472-0.236c0.443,0,0.798-0.06,1.063-0.119c0.591-0.118,0.738-0.768,0.856-1.623
		c0.147-1.24,0.147-3.573,0.147-6.289V148.192z M283.544,148.693c0,0.237,0.088,0.296,0.206,0.325
		c0.266,0.059,0.709,0.089,1.388,0.089c0.975,0,1.624-0.118,2.127-0.562c0.767-0.62,1.21-1.683,1.21-3.129
		c0-1.979-1.152-4.577-3.691-4.577c-0.413,0-0.679,0-0.974,0.059c-0.207,0.06-0.266,0.178-0.266,0.503V148.693z M287.441,151.056
		c-0.62-0.443-1.3-0.649-2.451-0.709c-0.531-0.03-0.827-0.03-1.27-0.03c-0.118,0-0.177,0.06-0.177,0.208v6.998
		c0,1.948,0.088,2.451,1.033,2.833c0.797,0.326,1.476,0.355,2.155,0.355c1.328,0,3.573-0.709,3.573-3.779
		C290.306,155.101,289.685,152.621,287.441,151.056z"/>
	<path fill="#001F5B" d="M312.775,148.192c0-4.489,0-5.314-0.06-6.26c-0.059-1.005-0.295-1.477-1.27-1.684
		c-0.236-0.059-0.738-0.088-1.151-0.088c-0.325,0-0.502-0.059-0.502-0.267c0-0.207,0.206-0.266,0.649-0.266
		c1.564,0,3.426,0.089,4.311,0.089c0.709,0,2.569-0.089,3.632-0.089c0.443,0,0.65,0.059,0.65,0.266c0,0.208-0.177,0.267-0.473,0.267
		c-0.324,0-0.502,0.029-0.856,0.088c-0.797,0.147-1.033,0.649-1.092,1.684c-0.06,0.945-0.06,1.771-0.06,6.26v4.133
		c0,4.283,0.856,6.083,2.304,7.266c1.328,1.092,2.687,1.209,3.69,1.209c1.299,0,2.894-0.413,4.075-1.594
		c1.624-1.624,1.712-4.281,1.712-7.322v-3.691c0-4.489,0-5.314-0.059-6.26c-0.06-1.005-0.295-1.477-1.27-1.684
		c-0.237-0.059-0.738-0.088-1.063-0.088c-0.324,0-0.502-0.059-0.502-0.267c0-0.207,0.207-0.266,0.62-0.266
		c1.506,0,3.366,0.089,3.396,0.089c0.354,0,2.215-0.089,3.366-0.089c0.413,0,0.62,0.059,0.62,0.266c0,0.208-0.177,0.267-0.531,0.267
		c-0.325,0-0.502,0.029-0.856,0.088c-0.797,0.147-1.033,0.649-1.093,1.684c-0.059,0.945-0.059,1.771-0.059,6.26v3.158
		c0,3.278-0.325,6.763-2.806,8.89c-2.096,1.8-4.222,2.126-6.142,2.126c-1.565,0-4.399-0.09-6.555-2.038
		c-1.506-1.358-2.628-3.544-2.628-7.825V148.192z"/>
	<path fill="#001F5B" d="M356.062,153.389c0,3.778,0,5.816,0.62,6.348c0.501,0.443,1.27,0.649,3.572,0.649
		c1.564,0,2.717-0.03,3.455-0.827c0.354-0.384,0.709-1.211,0.768-1.771c0.029-0.266,0.088-0.443,0.325-0.443
		c0.206,0,0.235,0.147,0.235,0.502c0,0.325-0.206,2.539-0.442,3.396c-0.177,0.649-0.325,0.797-1.86,0.797
		c-4.252,0-6.201-0.176-8.593-0.176c-0.679,0-2.539,0.088-3.721,0.088c-0.383,0-0.59-0.088-0.59-0.295
		c0-0.148,0.118-0.236,0.473-0.236c0.442,0,0.797-0.06,1.062-0.119c0.591-0.118,0.738-0.768,0.856-1.623
		c0.147-1.24,0.147-3.573,0.147-6.289v-5.197c0-4.489,0-5.314-0.059-6.26c-0.06-1.005-0.295-1.477-1.27-1.684
		c-0.237-0.059-0.591-0.088-0.976-0.088c-0.324,0-0.501-0.059-0.501-0.267c0-0.207,0.206-0.266,0.649-0.266
		c1.388,0,3.248,0.089,4.045,0.089c0.709,0,2.864-0.089,4.016-0.089c0.414,0,0.62,0.059,0.62,0.266c0,0.208-0.177,0.267-0.531,0.267
		c-0.324,0-0.797,0.029-1.151,0.088c-0.797,0.147-1.034,0.649-1.093,1.684c-0.059,0.945-0.059,1.771-0.059,6.26V153.389z"/>
	<path fill="#001F5B" d="M387.096,153.389c0,3.778,0,5.816,0.62,6.348c0.502,0.443,1.27,0.649,3.572,0.649
		c1.565,0,2.717-0.03,3.455-0.827c0.354-0.384,0.708-1.211,0.768-1.771c0.029-0.266,0.089-0.443,0.325-0.443
		c0.206,0,0.235,0.147,0.235,0.502c0,0.325-0.206,2.539-0.442,3.396c-0.178,0.649-0.324,0.797-1.86,0.797
		c-4.252,0-6.2-0.176-8.592-0.176c-0.68,0-2.54,0.088-3.721,0.088c-0.384,0-0.591-0.088-0.591-0.295
		c0-0.148,0.118-0.236,0.473-0.236c0.442,0,0.797-0.06,1.062-0.119c0.591-0.118,0.738-0.768,0.856-1.623
		c0.147-1.24,0.147-3.573,0.147-6.289v-5.197c0-4.489,0-5.314-0.059-6.26c-0.06-1.005-0.296-1.477-1.27-1.684
		c-0.236-0.059-0.591-0.088-0.975-0.088c-0.325,0-0.503-0.059-0.503-0.267c0-0.207,0.208-0.266,0.65-0.266
		c1.388,0,3.248,0.089,4.045,0.089c0.709,0,2.864-0.089,4.016-0.089c0.414,0,0.621,0.059,0.621,0.266
		c0,0.208-0.178,0.267-0.532,0.267c-0.325,0-0.798,0.029-1.151,0.088c-0.797,0.147-1.033,0.649-1.093,1.684
		c-0.059,0.945-0.059,1.771-0.059,6.26V153.389z"/>
</g>
<path fill="#EDAA00" d="M90.565,109.542c0-3.684,0-4.346-0.054-5.102c-0.046-0.801-0.231-1.187-1.009-1.348l-0.81-0.069
	l-0.186-0.146c0-0.14,0.117-0.186,0.378-0.186c1.062,0,2.505,0.07,2.713,0.07c0.214,0,1.631-0.07,2.341-0.07
	c0.262,0,0.378,0.046,0.378,0.186l-0.186,0.146c-0.168,0-0.308,0.022-0.592,0.069c-0.64,0.092-0.825,0.524-0.878,1.348
	c-0.046,0.756-0.046,1.418-0.046,5.102v3.312c0,3.398,0.754,4.862,1.771,5.834c1.164,1.085,2.228,1.301,3.567,1.301
	c1.44,0,2.858-0.687,3.714-1.701c1.087-1.35,1.372-3.36,1.372-5.787v-2.959c0-3.684,0-4.346-0.046-5.102
	c-0.056-0.801-0.239-1.187-1.019-1.348l-0.808-0.069l-0.186-0.146c0-0.14,0.117-0.186,0.378-0.186c1.062,0,2.366,0.07,2.503,0.07
	c0.17,0,1.28-0.07,1.989-0.07c0.254,0,0.376,0.046,0.376,0.186l-0.193,0.146c-0.16,0-0.307,0-0.584,0.069
	c-0.64,0.116-0.833,0.524-0.879,1.348c-0.046,0.756-0.046,1.418-0.046,5.102v2.528c0,2.557-0.285,5.392-2.172,7.064
	c-1.703,1.518-3.476,1.75-4.871,1.75c-0.801,0-3.189-0.094-4.868-1.68c-1.156-1.111-2.05-2.76-2.05-6.211V109.542z"/>
<path fill="#EDAA00" d="M133.237,117.34c0.046,1.94,0.285,2.551,0.916,2.742c0.455,0.116,0.972,0.14,1.186,0.14l0.186,0.146
	c0,0.139-0.138,0.185-0.424,0.185c-1.348,0-2.287-0.07-2.503-0.07c-0.216,0-1.202,0.07-2.266,0.07l-0.376-0.185l0.184-0.146
	c0.193,0,0.617-0.023,0.97-0.14c0.595-0.161,0.711-0.847,0.711-3.004l0.022-13.537c0-0.918,0.069-1.18,0.262-1.18l0.824,0.755
	c0.355,0.4,3.877,4.207,7.513,8.105c2.343,2.504,4.917,5.386,5.671,6.163l-0.254-12.003c-0.03-1.534-0.193-2.051-0.924-2.243
	c-0.424-0.093-0.971-0.115-1.156-0.115l-0.193-0.169c0-0.14,0.193-0.162,0.47-0.162c1.064,0,2.205,0.07,2.459,0.07
	c0.262,0,1.04-0.07,2.01-0.07c0.262,0,0.424,0.022,0.424,0.162l-0.254,0.169c-0.125,0-0.285,0-0.571,0.069
	c-0.778,0.161-0.877,0.687-0.877,2.104l-0.048,13.846c0,1.558-0.046,1.679-0.207,1.679c-0.192,0-0.478-0.261-1.727-1.516
	c-0.262-0.231-3.667-3.708-6.171-6.396c-2.734-2.96-5.409-5.933-6.164-6.789L133.237,117.34z"/>
<path fill="#EDAA00" d="M178.011,113.704c0,2.265,0,4.137,0.123,5.124c0.071,0.686,0.208,1.209,0.917,1.302
	c0.332,0.046,0.855,0.093,1.064,0.093l0.193,0.146c0,0.114-0.125,0.185-0.378,0.185c-1.301,0-2.79-0.07-2.912-0.07
	c-0.116,0-1.603,0.07-2.312,0.07c-0.262,0-0.378-0.046-0.378-0.185l0.186-0.146l0.709-0.093c0.478-0.093,0.594-0.616,0.686-1.302
	c0.123-0.987,0.123-2.859,0.123-5.124v-4.161c0-3.684,0-4.346-0.054-5.102c-0.046-0.801-0.277-1.209-0.8-1.324
	c-0.262-0.07-0.564-0.093-0.732-0.093l-0.185-0.146c0-0.14,0.116-0.186,0.378-0.186c0.778,0,2.265,0.07,2.381,0.07
	c0.122,0,1.611-0.07,2.317-0.07c0.264,0,0.379,0.046,0.379,0.186l-0.193,0.146c-0.162,0-0.3,0.022-0.584,0.069
	c-0.64,0.116-0.833,0.524-0.879,1.348c-0.046,0.756-0.046,1.418-0.046,5.102V113.704z"/>
<path fill="#EDAA00" d="M212.606,117.672c1.372-3.168,4.538-11.413,5.054-13.115c0.116-0.354,0.218-0.687,0.218-0.895l-0.31-0.546
	c-0.284-0.093-0.638-0.093-0.901-0.093l-0.255-0.146c0-0.14,0.14-0.186,0.519-0.186c0.947,0,2.033,0.07,2.317,0.07
	c0.14,0,1.156-0.07,1.842-0.07c0.254,0,0.401,0.046,0.401,0.162l-0.284,0.169c-0.163,0-0.687,0-1.134,0.285
	c-0.309,0.208-0.662,0.608-1.303,2.219c-0.262,0.663-1.44,3.498-2.643,6.403c-1.44,3.452-2.503,6.002-3.051,7.158
	c-0.664,1.418-0.755,1.796-0.994,1.796c-0.285,0-0.401-0.332-0.848-1.465l-5.786-14.486c-0.524-1.316-0.879-1.578-1.703-1.817
	c-0.355-0.093-0.756-0.093-0.902-0.093l-0.185-0.169c0-0.14,0.231-0.162,0.609-0.162c1.138,0,2.48,0.07,2.765,0.07
	c0.239,0,1.303-0.07,2.197-0.07c0.43,0,0.638,0.046,0.638,0.162l-0.231,0.169c-0.262,0-0.684,0.022-0.9,0.115
	c-0.262,0.115-0.31,0.309-0.31,0.479c0,0.3,0.285,1.031,0.64,1.956L212.606,117.672z"/>
<path fill="#EDAA00" d="M246.063,109.542c0-3.684,0-4.346-0.049-5.102c-0.045-0.801-0.236-1.187-1.016-1.348l-0.801-0.069
	l-0.192-0.146c0-0.14,0.121-0.186,0.378-0.186c1.062,0,2.557,0.07,2.673,0.07c0.163,0,4.87,0,5.409-0.024
	c0.447-0.023,0.831-0.068,1.016-0.115l0.334-0.125l0.092,0.217c0,0.163-0.117,0.446-0.186,1.109
	c-0.023,0.24-0.069,1.278-0.124,1.558l-0.161,0.261l-0.193-0.308c0-0.163-0.022-0.562-0.139-0.847
	c-0.161-0.378-0.399-0.664-1.68-0.803c-0.4-0.046-2.973-0.068-3.235-0.068l-0.14,0.23v6.525l0.14,0.232c0.308,0,3.212,0,3.761-0.047
	c0.562-0.046,0.892-0.093,1.108-0.331l0.355-0.308l0.114,0.192c0,0.138-0.114,0.54-0.183,1.325c-0.049,0.471-0.103,1.342-0.103,1.51
	l-0.162,0.446l-0.168-0.214c0-0.232,0-0.471-0.094-0.778c-0.092-0.331-0.308-0.733-1.225-0.824c-0.64-0.071-2.983-0.117-3.382-0.117
	l-0.163,0.162v2.081c0,0.801-0.022,3.544,0,4.037c0.068,1.633,0.425,1.942,2.736,1.942c0.615,0,1.657,0,2.272-0.263
	c0.617-0.261,0.894-0.731,1.063-1.703c0.046-0.255,0.092-0.354,0.208-0.354l0.146,0.354c0,0.193-0.192,1.796-0.308,2.295
	c-0.162,0.61-0.353,0.61-1.278,0.61c-3.569,0-5.147-0.14-5.833-0.14c-0.046,0-0.446,0.024-0.947,0.024
	c-0.471,0.022-1.019,0.046-1.372,0.046c-0.254,0-0.377-0.046-0.377-0.185l0.191-0.146l0.709-0.093
	c0.47-0.093,0.594-0.616,0.686-1.302c0.117-0.987,0.117-2.859,0.117-5.124V109.542z"/>
<path fill="#EDAA00" d="M318.892,120.245c-0.333-0.162-0.355-0.255-0.355-0.894c0-1.18,0.094-2.127,0.117-2.505
	c0.022-0.261,0.068-0.377,0.184-0.377l0.17,0.255c0,0.215,0,0.548,0.068,0.878c0.354,1.749,1.912,2.41,3.498,2.41
	c2.266,0,3.375-1.631,3.375-3.143c0-1.633-0.677-2.572-2.712-4.253l-1.063-0.879c-2.503-2.049-3.073-3.521-3.073-5.123
	c0-2.527,1.888-4.253,4.891-4.253c0.926,0,1.612,0.092,2.198,0.238c0.446,0.093,0.639,0.115,0.824,0.115l0.238,0.163
	c0,0.123-0.092,0.901-0.092,2.504c0,0.384-0.048,0.546-0.17,0.546l-0.185-0.308c-0.023-0.285-0.17-0.917-0.309-1.18
	c-0.14-0.262-0.777-1.256-2.952-1.256c-1.634,0-2.912,1.018-2.912,2.743c0,1.35,0.663,2.151,2.89,3.969l0.663,0.523
	c2.782,2.196,3.445,3.659,3.445,5.548c0,0.971-0.379,2.767-2.013,3.923c-1.009,0.709-2.288,0.994-3.567,0.994
	C320.94,120.885,319.855,120.721,318.892,120.245z"/>
<path fill="#EDAA00" d="M356.907,113.704c0,2.265,0,4.137,0.116,5.124c0.068,0.686,0.216,1.209,0.925,1.302
	c0.331,0.046,0.847,0.093,1.062,0.093l0.185,0.146c0,0.114-0.113,0.185-0.376,0.185c-1.303,0-2.789-0.07-2.906-0.07
	c-0.114,0-1.61,0.07-2.319,0.07c-0.253,0-0.376-0.046-0.376-0.185l0.192-0.146l0.709-0.093c0.471-0.093,0.594-0.616,0.685-1.302
	c0.116-0.987,0.116-2.859,0.116-5.124v-4.161c0-3.684,0-4.346-0.045-5.102c-0.047-0.801-0.285-1.209-0.803-1.324
	c-0.263-0.07-0.569-0.093-0.731-0.093l-0.191-0.146c0-0.14,0.121-0.186,0.376-0.186c0.777,0,2.273,0.07,2.388,0.07
	c0.117,0,1.604-0.07,2.32-0.07c0.254,0,0.378,0.046,0.378,0.186l-0.192,0.146c-0.163,0-0.31,0.022-0.596,0.069
	c-0.63,0.116-0.822,0.524-0.867,1.348c-0.049,0.756-0.049,1.418-0.049,5.102V113.704z"/>
<path fill="#EDAA00" d="M391.403,113.704c0,2.265,0,4.137,0.117,5.124c0.075,0.686,0.215,1.209,0.924,1.302
	c0.331,0.046,0.847,0.093,1.062,0.093l0.192,0.146c0,0.114-0.123,0.185-0.385,0.185c-1.294,0-2.781-0.07-2.905-0.07
	c-0.115,0-1.603,0.07-2.312,0.07c-0.263,0-0.376-0.046-0.376-0.185l0.184-0.146l0.71-0.093c0.479-0.093,0.592-0.616,0.685-1.302
	c0.117-0.987,0.117-2.859,0.117-5.124v-9.994l-3.491,0.046c-1.472,0.024-2.033,0.186-2.411,0.756
	c-0.263,0.4-0.332,0.569-0.402,0.731l-0.238,0.24l-0.115-0.218l0.516-2.457l0.24-0.446c0.159,0,0.4,0.238,1.039,0.284
	c0.687,0.069,1.58,0.117,1.864,0.117h8.863c0.754,0,1.3-0.07,1.678-0.117c0.354-0.07,0.562-0.123,0.664-0.123l0.115,0.285
	c0,0.709-0.07,2.342-0.07,2.604l-0.17,0.301c-0.117,0-0.162-0.07-0.185-0.401l-0.023-0.255c-0.099-0.708-0.639-1.255-2.912-1.302
	l-2.975-0.046V113.704z"/>
<path fill="#EDAA00" d="M426.378,114.435c0-1.279-0.24-1.795-0.547-2.481c-0.162-0.376-3.33-5.577-4.153-6.804
	c-0.594-0.877-1.188-1.464-1.612-1.748c-0.354-0.24-0.8-0.378-1.017-0.378l-0.238-0.169l0.308-0.162c0.446,0,2.229,0.07,2.342,0.07
	c0.163,0,1.065-0.07,1.982-0.07c0.261,0,0.309,0.07,0.309,0.162l-0.357,0.216l-0.307,0.424c0,0.285,0.125,0.57,0.307,0.924
	c0.38,0.685,3.924,6.781,4.355,7.467c0.446-0.994,3.445-6.172,3.922-6.951c0.301-0.493,0.399-0.894,0.399-1.201
	c0-0.331-0.099-0.594-0.376-0.662l-0.355-0.238l0.379-0.14c0.615,0,1.371,0.07,1.555,0.07c0.147,0,1.842-0.07,2.298-0.07l0.307,0.14
	l-0.307,0.191c-0.263,0-0.709,0.093-1.085,0.332c-0.479,0.284-0.735,0.562-1.259,1.201c-0.776,0.948-4.082,6.503-4.515,7.514
	c-0.354,0.854-0.354,1.586-0.354,2.364v2.034c0,0.377,0,1.371,0.077,2.358c0.046,0.686,0.253,1.209,0.962,1.302
	c0.331,0.046,0.856,0.093,1.062,0.093l0.193,0.146c0,0.114-0.114,0.185-0.377,0.185c-1.302,0-2.789-0.07-2.906-0.07
	c-0.121,0-1.61,0.07-2.317,0.07c-0.265,0-0.378-0.046-0.378-0.185l0.186-0.146l0.716-0.093c0.471-0.093,0.679-0.616,0.731-1.302
	c0.07-0.987,0.07-1.981,0.07-2.358V114.435z"/>
<path fill="#EDAA00" d="M273.494,25.997c0,0,0.731-0.709,2.557-0.879c2.095-0.193,3.235-1.086,4.013-2.065
	c0.78-0.97,0.75-2.01,1.612-2.843c0.878-0.847,1.641-1.379,2.696-1.495c1.07-0.115,1.888,0.039,2.735-0.455
	c0.848-0.493,0.878-0.5,0.878-0.5s-0.617,0.208-1.402,0.27c-0.776,0.069-1.979-0.254-2.696-0.254c-0.717,0-2.243,0.323-3.122,1.133
	c-0.877,0.815-1.726,2.119-2.604,2.472c-0.877,0.355-2.094,0.702-2.726,0.509c-1.126-0.347-1.564-0.601-2.543-0.479
	c-0.972,0.131-1.248,0.301-1.248,0.301l10.094-12.959l-13.508,9.686c0,0,0.015-0.602,0.408-1.448
	c0.387-0.841,1.774-1.728,1.98-3.137c0.177-1.203,0.279-1.95-0.392-3.329c-0.58-1.225-0.516-2.249-0.372-3.012
	c0.163-0.863,0.701-1.757,1.187-2.227c0.833-0.8,1.026-1.271,1.187-1.873l0.147-0.585c0,0-0.03,0.247-0.647,1.024
	c-0.664,0.832-1.048,0.617-1.857,1.372c-0.815,0.748-1.395,1.672-1.656,2.758c-0.308,1.271,0.271,1.765,0.102,3.059
	c-0.17,1.218-0.285,1.464-0.948,2.373c-0.57,0.779-0.988,0.948-1.849,1.403c-0.686,0.354-1.264,0.84-1.634,1.718l-2.536-15.849
	l-2.403,15.979c0,0-0.877-1.364-0.909-1.818c-0.046-0.586-0.085-2.504-1.171-3.629c-0.91-0.94-1.419-1.202-2.928-1.771
	c-0.887-0.333-1.903-1.38-2.343-2.305c-0.439-0.932-0.355-2.635-0.484-3.028c-0.131-0.393-0.718-1.316-0.718-1.316
	s0.322,0.801,0.292,1.578c-0.03,0.778-0.423,2.143-0.322,2.698c0.1,0.555,0.162,1.695,1.363,2.796
	c1.202,1.109,1.695,0.979,2.442,2.443c0.747,1.463,0.617,2.21,0.354,3.021c-0.261,0.816-0.554,1.595-0.292,2.28
	c0.262,0.678,0.254,0.825,0.254,0.825l-13.499-9.686l9.995,12.952c0,0-1.288-0.115-1.981-0.731c-0.963-0.84-1.611-1.264-2.734-1.572
	c0,0-1.056-0.378-2.581,0.077c-1.534,0.455-1.242,0.57-2.281,0.732c-1.042,0.162-2.712-0.092-3.529-0.778
	c-0.809-0.686-1.479-1.287-2.065-1.479c-0.585-0.193-1.055-0.247-1.055-0.247s0.939,0.331,1.656,1.14
	c0.732,0.833,0.909,1.603,1.949,2.181c1.095,0.6,2.02,0.839,2.998,0.778c0.97-0.069,1.001-0.3,2.302-0.146
	c0.703,0.078,2.065,0.616,2.414,1.025c0.915,1.094,1.479,2.157,1.918,2.565c0.555,0.524,1.232,0.748,1.232,0.748l-16.619,2.766
	c0,0,15.694-1.041,17.744-1.141c2.05-0.092,7.658-0.532,11.072-0.485c3.414,0.054,5.463,0.2,7.75,0.339
	c2.297,0.146,21.319,1.357,21.319,1.357L273.494,25.997z"/>
<path fill-rule="evenodd" clip-rule="evenodd" fill="#EDAA00" d="M283.425,103.871l0.184-0.284c0.238-0.069,0.872-0.139,1.58-0.139
	c2.536,0,4.091,1.772,4.091,4.723c0,1.797-0.615,3.074-1.44,3.646c-0.547,0.376-1.202,0.446-1.771,0.446
	c-1.041,0-2.126-0.169-2.481-0.377l-0.161-0.285V103.871z M281.529,113.704c0,2.265,0,4.137-0.116,5.124
	c-0.099,0.686-0.216,1.209-0.687,1.302l-0.708,0.093l-0.191,0.146c0,0.139,0.123,0.185,0.376,0.185c0.709,0,2.204-0.07,2.227-0.07
	c0.117,0,1.603,0.07,2.906,0.07c0.261,0,0.376-0.07,0.376-0.185l-0.19-0.146c-0.208,0-0.735-0.047-1.064-0.093
	c-0.709-0.093-0.849-0.616-0.918-1.302c-0.114-0.987-0.114-2.859-0.114-5.124v-0.57l0.161-0.186l2.905,0.047l0.308,0.139
	c0.471,0.616,1.588,2.203,2.574,3.498c1.349,1.772,2.173,2.928,3.188,3.476c0.617,0.33,1.21,0.446,2.528,0.446h1.68
	c0.424,0,0.571-0.046,0.571-0.185l-0.217-0.146c-0.139,0-0.47,0-0.917-0.07c-0.594-0.093-1.61-0.354-2.89-1.701
	c-1.363-1.465-2.973-3.569-4.906-6.049c2.126-1.958,2.857-3.706,2.857-5.456c0-1.634-1.041-2.79-1.633-3.213
	c-1.249-0.9-2.837-1.04-4.322-1.04c-0.733,0-2.528,0.07-2.79,0.07c-0.116,0-1.611-0.07-2.674-0.07c-0.255,0-0.378,0.046-0.378,0.186
	l0.192,0.146l0.802,0.069c0.777,0.161,0.97,0.547,1.016,1.348c0.048,0.756,0.048,1.418,0.048,5.102V113.704z"/>
<path fill-rule="evenodd" clip-rule="evenodd" fill="#001F5B" d="M469.656,91.892c2.045,0,3.697-1.663,3.697-3.717
	c0-2.035-1.652-3.7-3.697-3.7c-2.053,0-3.718,1.665-3.718,3.7C465.938,90.229,467.604,91.892,469.656,91.892z M469.656,91.403
	c-1.809,0-3.129-1.409-3.129-3.228c0-1.802,1.32-3.21,3.129-3.21c1.8,0,3.111,1.408,3.111,3.21
	C472.768,89.994,471.456,91.403,469.656,91.403z M470.253,88.34c0.733-0.02,1.301-0.321,1.301-1.135
	c0-0.685-0.372-1.096-1.468-1.096h-1.809v4.139h0.508V88.34h0.929l1.184,1.908h0.609L470.253,88.34z M468.785,87.94v-1.468h1.186
	c0.507,0,1.035,0.079,1.035,0.724c0,0.841-0.86,0.744-1.446,0.744H468.785z"/>
<g>
	<path fill="#001F5B" d="M64.753,56.717c0-11.542,0-13.616-0.147-15.981c-0.145-2.512-0.739-3.698-3.181-4.215
		c-0.594-0.145-1.849-0.224-2.513-0.224c-0.3,0-0.592-0.145-0.592-0.438c0-0.447,0.369-0.593,1.187-0.593
		c3.329,0,7.689,0.224,8.136,0.224c0.663,0,4.955-0.224,7.173-0.224c0.81,0,1.181,0.146,1.181,0.593
		c0,0.293-0.294,0.438-0.586,0.438c-0.523,0-0.963,0.079-1.85,0.224c-2.002,0.371-2.589,1.626-2.742,4.215
		c-0.147,2.366-0.147,4.439-0.147,15.981v4.438h0.3c1.257-1.41,14.64-15.017,17.306-17.898c2.073-2.149,3.991-4.069,3.991-5.333
		c0-0.885-0.369-1.325-0.955-1.547c-0.369-0.147-0.67-0.302-0.67-0.594c0-0.37,0.371-0.516,0.886-0.516
		c1.479,0,3.775,0.224,5.549,0.224c0.369,0,5.254-0.224,7.104-0.224c0.816,0,1.108,0.146,1.108,0.516
		c0,0.371-0.145,0.516-0.739,0.516c-1.108,0-2.666,0.371-4.145,1.042c-3.028,1.324-4.654,3.174-7.983,6.356
		c-1.85,1.78-14.724,14.354-16.273,16.204c1.918,2.142,17.306,18.047,20.342,20.857c6.209,5.773,7.251,7.259,11.019,8.431
		c1.995,0.624,4.068,0.962,4.584,0.962c0.516,0,0.963,0.147,0.963,0.448c0,0.37-0.369,0.585-1.626,0.585h-3.775
		c-2.071,0-3.474,0-5.1-0.146c-3.923-0.371-5.772-1.997-8.954-4.507c-3.329-2.744-19.008-19.681-22.562-24.042h-0.369v7.244
		c0,7.104,0,12.944,0.369,16.057c0.226,2.144,0.671,3.768,2.891,4.069c1.032,0.146,2.218,0.291,2.881,0.291
		c0.447,0,0.594,0.225,0.594,0.448c0,0.37-0.371,0.585-1.188,0.585c-3.621,0-7.912-0.215-8.506-0.215
		c-0.592,0-4.876,0.215-7.097,0.215c-0.816,0-1.187-0.146-1.187-0.585c0-0.224,0.147-0.448,0.594-0.448
		c0.663,0,1.548-0.146,2.218-0.291c1.481-0.302,1.85-1.926,2.142-4.069c0.371-3.112,0.371-8.952,0.371-16.057V56.717z"/>
	<path fill="#001F5B" d="M155.703,81.125c0.147,6.064,0.887,7.99,2.884,8.576c1.402,0.37,3.036,0.446,3.697,0.446
		c0.371,0,0.595,0.147,0.595,0.448c0,0.439-0.447,0.585-1.334,0.585c-4.213,0-7.173-0.215-7.843-0.215
		c-0.663,0-3.768,0.215-7.097,0.215c-0.739,0-1.187-0.069-1.187-0.585c0-0.301,0.224-0.448,0.594-0.448
		c0.592,0,1.926-0.076,3.034-0.446c1.85-0.516,2.22-2.658,2.22-9.393l0.069-42.386c0-2.881,0.224-3.698,0.818-3.698
		c0.592,0,1.848,1.634,2.587,2.374c1.11,1.256,12.129,13.16,23.525,25.366c7.32,7.843,15.379,16.866,17.752,19.309l-0.816-37.579
		c-0.078-4.809-0.594-6.434-2.883-7.027c-1.332-0.292-3.036-0.371-3.628-0.371c-0.516,0-0.593-0.224-0.593-0.516
		c0-0.447,0.593-0.516,1.479-0.516c3.329,0,6.88,0.224,7.696,0.224c0.81,0,3.252-0.224,6.289-0.224c0.808,0,1.332,0.069,1.332,0.516
		c0,0.292-0.3,0.516-0.816,0.516c-0.369,0-0.886,0-1.771,0.224c-2.443,0.517-2.744,2.142-2.744,6.581l-0.147,43.35
		c0,4.884-0.145,5.255-0.661,5.255c-0.594,0-1.481-0.816-5.402-4.74c-0.817-0.739-11.466-11.61-19.31-20.04
		c-8.575-9.246-16.937-18.57-19.302-21.236L155.703,81.125z"/>
	<path fill="#001F5B" d="M230.999,69.731c0,7.104,0,12.944,0.369,16.057c0.225,2.144,0.671,3.768,2.891,4.069
		c1.032,0.146,2.658,0.291,3.328,0.291c0.439,0,0.593,0.225,0.593,0.448c0,0.37-0.369,0.585-1.187,0.585
		c-4.068,0-8.73-0.215-9.099-0.215c-0.371,0-5.033,0.215-7.252,0.215c-0.808,0-1.179-0.146-1.179-0.585
		c0-0.224,0.147-0.448,0.595-0.448c0.663,0,1.547-0.146,2.218-0.291c1.479-0.302,1.85-1.926,2.143-4.069
		c0.37-3.112,0.37-8.952,0.37-16.057V38.447l-10.95,0.146c-4.583,0.069-6.363,0.593-7.543,2.365
		c-0.816,1.255-1.04,1.772-1.255,2.297c-0.224,0.584-0.447,0.739-0.74,0.739c-0.223,0-0.371-0.224-0.371-0.67
		c0-0.739,1.481-7.097,1.626-7.689c0.147-0.447,0.439-1.411,0.739-1.411c0.518,0,1.257,0.74,3.252,0.894
		c2.15,0.216,4.962,0.371,5.849,0.371h27.737c4.731,0,6.728-0.74,7.32-0.74c0.37,0,0.37,0.439,0.37,0.886
		c0,2.219-0.223,7.319-0.223,8.136c0,0.663-0.217,0.963-0.517,0.963c-0.371,0-0.516-0.223-0.595-1.263l-0.068-0.81
		c-0.3-2.219-1.997-3.922-9.101-4.068l-9.322-0.146V69.731z"/>
	<path fill="#001F5B" d="M326.865,69.731c0,7.104,0,12.944,0.37,16.057c0.217,2.144,0.663,3.768,2.882,4.069
		c1.032,0.146,2.665,0.291,3.328,0.291c0.448,0,0.595,0.225,0.595,0.448c0,0.37-0.371,0.585-1.187,0.585
		c-4.07,0-8.73-0.215-9.102-0.215c-0.368,0-5.023,0.215-7.243,0.215c-0.815,0-1.184-0.146-1.184-0.585
		c0-0.224,0.144-0.448,0.592-0.448c0.663,0,1.549-0.146,2.219-0.291c1.479-0.302,1.849-1.926,2.142-4.069
		c0.37-3.112,0.37-8.952,0.37-16.057V38.447l-9.909,0.146c-4.583,0.069-6.365,0.593-7.543,2.365
		c-0.816,1.255-1.039,1.772-1.264,2.297c-0.216,0.584-0.438,0.739-0.739,0.739c-0.216,0-0.37-0.224-0.37-0.67
		c0-0.739,1.478-7.097,1.633-7.689c0.147-0.447,0.44-1.411,0.74-1.411c0.517,0,1.257,0.74,3.251,0.894
		c2.144,0.216,4.955,0.371,5.842,0.371h26.706c2.366,0,4.067-0.224,5.254-0.371c1.109-0.223,1.771-0.369,2.065-0.369
		c0.369,0,0.369,0.439,0.369,0.886c0,2.219-0.216,7.319-0.216,8.136c0,0.663-0.223,0.963-0.516,0.963
		c-0.377,0-0.523-0.223-0.594-1.263l-0.077-0.81c-0.291-2.219-1.994-3.922-9.099-4.068l-9.316-0.146V69.731z"/>
	<path fill="#001F5B" d="M405.197,69.731c0,7.104,0,12.944,0.369,16.057c0.223,2.144,0.663,3.768,2.88,4.069
		c1.041,0.146,2.668,0.291,3.328,0.291c0.448,0,0.596,0.225,0.596,0.448c0,0.37-0.371,0.585-1.188,0.585
		c-4.067,0-8.722-0.215-9.092-0.215c-0.369,0-5.031,0.215-7.25,0.215c-0.818,0-1.187-0.146-1.187-0.585
		c0-0.224,0.146-0.448,0.592-0.448c0.663,0,1.559-0.146,2.22-0.291c1.48-0.302,1.849-1.926,2.144-4.069
		c0.368-3.112,0.368-8.952,0.368-16.057V38.447l-10.94,0.146c-4.593,0.069-6.365,0.593-7.552,2.365
		c-0.808,1.255-1.032,1.772-1.255,2.297c-0.224,0.584-0.44,0.739-0.739,0.739c-0.225,0-0.37-0.224-0.37-0.67
		c0-0.739,1.478-7.097,1.625-7.689c0.155-0.447,0.448-1.411,0.739-1.411c0.523,0,1.263,0.74,3.26,0.894
		c2.142,0.216,4.955,0.371,5.842,0.371h27.738c2.364,0,4.066-0.224,5.254-0.371c1.109-0.223,1.772-0.369,2.073-0.369
		c0.37,0,0.37,0.439,0.37,0.886c0,2.219-0.227,7.319-0.227,8.136c0,0.663-0.222,0.963-0.514,0.963c-0.369,0-0.524-0.223-0.594-1.263
		l-0.076-0.81c-0.294-2.219-1.997-3.922-9.102-4.068l-9.313-0.146V69.731z"/>
	<path fill="#001F5B" d="M113.943,56.717c0-11.542,0-13.616-0.155-15.981c-0.145-2.512-0.74-3.698-3.173-4.215
		c-0.595-0.145-1.85-0.224-2.521-0.224c-0.292,0-0.592-0.145-0.592-0.438c0-0.447,0.369-0.593,1.187-0.593
		c3.329,0,7.991,0.224,8.359,0.224c0.516,0,20.989,0,22.684-0.078c1.41-0.077,2.597-0.223,3.181-0.37
		c0.371-0.077,0.67-0.37,1.042-0.37c0.216,0,0.292,0.293,0.292,0.662c0,0.524-0.371,1.41-0.592,3.483
		c-0.071,0.732-0.216,3.991-0.371,4.877c-0.069,0.37-0.224,0.817-0.516,0.817c-0.439,0-0.594-0.37-0.594-0.963
		c0-0.516-0.069-1.78-0.438-2.666c-0.525-1.179-7.013-2.065-11.004-2.513c-1.255-0.146-9.322-0.224-10.132-0.224
		c-0.3,0-0.447,0.224-0.447,0.739v20.419c0,0.517,0.077,0.74,0.447,0.74c0.955,0,15.803,0,17.506-0.147
		c1.781-0.154,2.812-0.3,3.476-1.04c0.523-0.594,0.816-0.963,1.11-0.963c0.221,0,0.368,0.153,0.368,0.592
		c0,0.447-0.368,1.703-0.584,4.146c-0.147,1.479-0.302,4.214-0.302,4.731c0,0.592,0,1.409-0.516,1.409
		c-0.369,0-0.516-0.301-0.516-0.67c0-0.739,0-1.479-0.299-2.442c-0.294-1.033-6.713-2.289-9.594-2.589
		c-1.994-0.216-9.322-0.371-10.58-0.371c-0.369,0-0.516,0.224-0.516,0.524v6.504c0,2.518-0.077,11.094,0,12.651
		c0.223,5.101,1.333,6.064,8.583,6.064c1.92,0,10.927,0,12.846-0.811c1.926-0.816,2.812-2.295,3.328-5.331
		c0.155-0.81,0.3-1.109,0.671-1.109c0.439,0,0.439,0.593,0.439,1.109c0,0.593-0.586,5.626-0.956,7.18
		c-0.518,1.92-1.11,1.92-3.999,1.92c-11.164,0-21.875-0.438-24.018-0.438c-0.147,0-1.41,0.069-2.958,0.069
		c-1.48,0.076-3.183,0.146-4.293,0.146c-0.815,0-1.186-0.146-1.186-0.585c0-0.224,0.155-0.448,0.594-0.448
		c0.671,0,1.556-0.146,2.219-0.291c1.481-0.302,1.85-1.926,2.149-4.069c0.371-3.112,0.371-8.952,0.371-16.057V56.717z"/>
	<path fill="#001F5B" d="M432.317,57.116c0-11.534,0-13.606-0.146-15.971c-0.147-2.521-0.74-3.699-3.183-4.215
		c-0.593-0.155-1.85-0.224-2.512-0.224c-0.302,0-0.593-0.146-0.593-0.447c0-0.439,0.37-0.593,1.187-0.593
		c3.328,0,7.982,0.223,8.354,0.223c0.516,0,20.987,0,22.689-0.07c1.402-0.077,2.588-0.224,3.183-0.369
		c0.369-0.077,0.663-0.378,1.032-0.378c0.224,0,0.301,0.301,0.301,0.67c0,0.516-0.369,1.402-0.594,3.476
		c-0.076,0.739-0.223,3.991-0.37,4.884c-0.076,0.371-0.222,0.811-0.516,0.811c-0.448,0-0.592-0.371-0.592-0.956
		c0-0.524-0.079-1.781-0.448-2.667c-0.516-1.187-7.004-2.072-11.003-2.512c-1.257-0.155-9.315-0.223-10.134-0.223
		c-0.291,0-0.438,0.223-0.438,0.739v20.41c0,0.524,0.07,0.741,0.438,0.741c0.964,0,15.812,0,17.514-0.146
		c1.773-0.147,2.812-0.293,3.476-1.033c0.517-0.593,0.818-0.963,1.111-0.963c0.223,0,0.37,0.146,0.37,0.593
		c0,0.439-0.37,1.702-0.595,4.138c-0.147,1.479-0.291,4.221-0.291,4.739c0,0.593,0,1.401-0.517,1.401
		c-0.37,0-0.525-0.292-0.525-0.662c0-0.739,0-1.479-0.293-2.442c-0.292-1.031-6.711-2.295-9.591-2.589
		c-2.005-0.224-9.325-0.369-10.58-0.369c-0.37,0-0.518,0.224-0.518,0.516v6.511c0,2.512-0.077,11.094,0,12.652
		c0.218,5.101,1.325,6.063,8.576,6.063c1.927,0,10.926,0,12.852-0.817c1.927-0.807,2.812-2.287,3.329-5.323
		c0.146-0.816,0.292-1.109,0.663-1.109c0.447,0,0.447,0.593,0.447,1.109c0,0.593-0.592,5.624-0.964,7.174
		c-0.516,1.926-1.109,1.926-3.991,1.926c-11.172,0-21.876-0.447-24.022-0.447c-0.147,0-1.402,0.077-2.96,0.077
		c-1.479,0.069-3.173,0.147-4.284,0.147c-0.818,0-1.187-0.147-1.187-0.594c0-0.224,0.146-0.438,0.593-0.438
		c0.662,0,1.55-0.155,2.221-0.303c1.479-0.292,1.849-1.918,2.142-4.068c0.368-3.104,0.368-8.945,0.368-16.048V57.116z"/>
	<path fill="#001F5B" d="M270.363,90.358c-1.232-0.517-1.315-0.818-1.315-2.814c0-3.696,0.346-6.656,0.438-7.835
		c0.085-0.816,0.263-1.188,0.701-1.188c0.53,0,0.615,0.225,0.615,0.816c0,0.664,0,1.703,0.261,2.736
		c1.319,5.47,7.12,7.543,13.018,7.543c8.435,0,12.564-5.101,12.564-9.839c0-5.101-2.89-9.771-10.447-15.026l-3.96-2.734
		c-9.316-6.433-11.428-11.018-11.428-16.05c0-7.92,7.036-13.314,18.199-13.314c3.431,0,5.033,0.254,7.229,0.701
		c1.671,0.292,2.287,0.277,2.989,0.277c0.707,0,0.885,0.147,0.885,0.516c0,0.371,1.132,3.567,1.826,8.483
		c0.17,1.171-0.17,1.703-0.609,1.703c-0.53,0-0.616-0.369-0.708-0.963c-0.085-0.886-1.771-3.397-2.295-4.214
		c-0.534-0.809-2.898-3.914-10.989-3.914c-6.063,0-10.809,3.174-10.809,8.575c0,4.223,2.457,6.734,10.718,12.429l2.464,1.625
		c10.372,6.88,13.177,13.175,13.177,19.093c0,3.037-1.41,8.661-7.475,12.282c-3.775,2.219-8.521,3.105-13.269,3.105
		C278.009,92.352,273.971,91.835,270.363,90.358z"/>
	<path fill-rule="evenodd" clip-rule="evenodd" fill="#001F5B" d="M352.539,66.702c-0.253,0-0.431-0.147-0.253-0.516l7.504-19.973
		c0.43-1.109,0.854-1.109,1.286,0l8.105,19.973c0.087,0.293,0.087,0.516-0.338,0.516H352.539z M340.58,83.043
		c-1.533,3.7-3.234,6.512-7.165,6.959c-0.686,0.069-1.88,0.146-2.479,0.146c-0.425,0-0.765,0.147-0.765,0.448
		c0,0.439,0.508,0.585,1.617,0.585c4.016,0,8.709-0.215,9.648-0.215c0.94,0,4.616,0.215,6.656,0.215
		c0.771,0,1.288-0.146,1.288-0.585c0-0.301-0.264-0.448-0.855-0.448h-0.856c-1.447,0-3.243-0.663-3.243-2.142
		c0-1.334,0.424-3.112,1.194-4.963l5.124-13.089c0.17-0.37,0.431-0.594,0.855-0.594h18.352c0.425,0,0.595,0.146,0.772,0.447
		l7.936,18.199c0.518,1.18,0,1.851-0.508,1.996c-0.347,0.069-0.602,0.223-0.602,0.516c0,0.448,0.941,0.448,2.566,0.518
		c5.886,0.146,12.12,0.146,13.398,0.146c0.94,0,1.71-0.146,1.71-0.585c0-0.371-0.338-0.448-0.854-0.448
		c-0.855,0-2.134-0.076-3.415-0.446c-1.793-0.439-4.268-1.627-7.342-8.206c-5.209-11.241-18.614-41.792-19.896-44.604
		c-1.022-2.297-1.362-2.667-1.879-2.667c-0.508,0-0.854,0.447-1.872,2.89L340.58,83.043z"/>
</g>
</svg>
